<svg width="184" height="40" viewBox="0 0 184 40" fill="none" xmlns="http://www.w3.org/2000/svg">
<g clip-path="url(#clip0_1660_1181)">
<path d="M37.8667 7.43994H2.13333C0.955126 7.43994 0 8.39507 0 9.57327V30.4266C0 31.6048 0.955126 32.5599 2.13333 32.5599H37.8667C39.0449 32.5599 40 31.6048 40 30.4266V9.57327C40 8.39507 39.0449 7.43994 37.8667 7.43994Z" fill="#00425F"/>
<path d="M8.33391 25.0807C11.729 25.0807 14.4813 22.3284 14.4813 18.9333C14.4813 15.5382 11.729 12.7859 8.33391 12.7859C4.9388 12.7859 2.18652 15.5382 2.18652 18.9333C2.18652 22.3284 4.9388 25.0807 8.33391 25.0807Z" fill="#EE312A"/>
<path d="M8.33395 21.5665C6.95903 18.4496 5.95076 15.5381 5.95076 15.5381H3.84277C3.84277 15.5381 5.12581 19.2752 7.509 23.9488H9.15891C11.5421 19.2752 12.8251 15.5381 12.8251 15.5381H10.7171C10.7171 15.5381 9.70888 18.4496 8.33395 21.5665Z" fill="white"/>
<path d="M37.7625 21.179H33.6383C33.6383 21.179 33.7299 22.554 35.5629 22.554C36.4794 22.554 37.3959 22.2788 37.3959 22.2788L37.5792 23.7451C37.5792 23.7451 36.6627 24.1117 35.3796 24.1117C33.5467 24.1117 31.897 23.1952 31.897 20.6291C31.897 18.6128 33.18 17.3297 35.013 17.3297C37.7625 17.3297 37.9458 20.0792 37.7625 21.179ZM34.9214 18.6128C33.7299 18.6128 33.6383 19.8959 33.6383 19.8959H36.2044C36.2044 19.8959 36.1128 18.6128 34.9214 18.6128Z" fill="white"/>
<path d="M23.5909 18.9998L23.8659 17.5334C23.8659 17.5334 21.7425 16.8891 20.0166 18.0833V23.9488H21.8497L21.8495 19.1831C22.5827 18.6332 23.5909 18.9998 23.5909 18.9998Z" fill="white"/>
<path d="M18.5824 21.179H14.4582C14.4582 21.179 14.5498 22.554 16.3828 22.554C17.2993 22.554 18.2157 22.2788 18.2157 22.2788L18.3991 23.7451C18.3991 23.7451 17.4826 24.1117 16.1995 24.1117C14.3665 24.1117 12.7168 23.1952 12.7168 20.6291C12.7168 18.6128 13.9999 17.3297 15.8329 17.3297C18.5824 17.3297 18.7656 20.0792 18.5824 21.179ZM15.7412 18.6128C14.5498 18.6128 14.4582 19.8959 14.4582 19.8959H17.0243C17.0243 19.8959 16.9327 18.6128 15.7412 18.6128Z" fill="white"/>
<path d="M28.043 21.7506C27.4733 20.3649 27.0136 18.9364 26.6683 17.4785L24.8354 17.4788C24.8354 17.4788 25.7519 21.0172 27.31 23.9491H28.776C30.3342 21.0172 31.2506 17.4794 31.2506 17.4794H29.4178C29.0724 18.937 28.6127 20.3652 28.043 21.7506Z" fill="white"/>
</g>
<g clip-path="url(#clip1_1660_1181)">
<path d="M79.2444 35.4331V33.373C79.2444 32.583 78.7636 32.0682 77.9744 32.0682C77.5599 32.0682 77.1164 32.2058 76.8072 32.6485C76.5668 32.2705 76.2269 32.0682 75.7087 32.0682C75.5161 32.0599 75.3244 32.0994 75.1508 32.1833C74.9772 32.2672 74.8271 32.3929 74.7139 32.549V32.1345H74.0615V35.4306H74.7139V33.5446C74.7139 32.9643 75.0572 32.6866 75.538 32.6866C76.0188 32.6866 76.2932 32.9958 76.2932 33.5446V35.4331H76.9456V33.5446C76.9456 32.9643 77.2888 32.6866 77.7696 32.6866C78.2505 32.6866 78.5249 32.9958 78.5249 33.5446V35.4331H79.2444ZM89.9567 32.171H88.7547V31.1762H88.1039V32.171H87.4175V32.7513H88.1039V34.2999C88.1039 35.0551 88.3783 35.5019 89.2023 35.5019C89.5145 35.4954 89.8204 35.4129 90.0935 35.2615L89.8871 34.6812C89.7019 34.797 89.4871 34.8566 89.2687 34.8528C88.9255 34.8528 88.7539 34.6464 88.7539 34.3032V32.7248H89.9559V32.1751L89.9567 32.171ZM96.0681 32.0682C95.8904 32.0642 95.7147 32.1065 95.5582 32.1907C95.4017 32.275 95.2698 32.3985 95.1753 32.549V32.1345H94.5229V35.4306H95.1753V33.5795C95.1753 33.0298 95.4497 32.6866 95.8965 32.6866C96.0473 32.6927 96.1969 32.7158 96.3425 32.7554L96.5489 32.137C96.3915 32.0973 96.2304 32.0742 96.0681 32.0682ZM86.8322 32.4114C86.489 32.171 86.0082 32.0682 85.4934 32.0682C84.6694 32.0682 84.1546 32.4462 84.1546 33.0986C84.1546 33.6483 84.5326 33.9566 85.253 34.0603L85.5962 34.0943C85.9742 34.1631 86.2146 34.3007 86.2146 34.4723C86.2146 34.7127 85.9402 34.8868 85.4246 34.8868C85.0309 34.8949 84.6453 34.7744 84.3262 34.5436L83.983 35.0584C84.4638 35.4016 85.0474 35.4729 85.3923 35.4729C86.3539 35.4729 86.8687 35.0269 86.8687 34.4085C86.8687 33.8282 86.4542 33.5504 85.7355 33.4468L85.3923 33.4128C85.0831 33.3788 84.812 33.2752 84.812 33.0696C84.812 32.8292 85.0864 32.6551 85.4644 32.6551C85.8789 32.6551 86.2884 32.8267 86.4948 32.9295L86.8322 32.4114ZM96.7893 33.785C96.7893 34.7798 97.4418 35.5019 98.5062 35.5019C98.987 35.5019 99.3302 35.3991 99.6734 35.1239L99.3302 34.6091C99.0872 34.8059 98.7849 34.9148 98.4722 34.9183C97.8919 34.9183 97.4418 34.4723 97.4418 33.8199C97.4418 33.1674 97.8861 32.7248 98.4722 32.7248C98.7849 32.7282 99.0872 32.8372 99.3302 33.034L99.6734 32.5192C99.3302 32.2448 98.987 32.1411 98.5062 32.1411C97.4758 32.0723 96.7893 32.7936 96.7893 33.7892V33.785ZM92.1884 32.0682C91.2268 32.0682 90.5743 32.7546 90.5743 33.785C90.5743 34.8155 91.2608 35.5019 92.2564 35.5019C92.7407 35.5121 93.2137 35.3546 93.5952 35.0559L93.252 34.5751C92.9761 34.7889 92.6393 34.9091 92.2904 34.9183C91.8444 34.9183 91.3635 34.6439 91.2956 34.0603H93.7337V33.7859C93.7337 32.7554 93.1152 32.069 92.1884 32.069V32.0682ZM92.1544 32.6866C92.6352 32.6866 92.9784 32.9958 93.0124 33.5106H91.2276C91.3304 33.0298 91.6421 32.6866 92.1544 32.6866ZM83.2617 33.785V32.137H82.6093V32.5515C82.3689 32.2423 82.029 32.0707 81.5449 32.0707C80.6181 32.0707 79.9308 32.7919 79.9308 33.7875C79.9308 34.7832 80.6172 35.5044 81.5449 35.5044C82.0257 35.5044 82.3689 35.3328 82.6093 35.0236V35.4381H83.2617V33.785ZM80.6181 33.785C80.6181 33.1666 80.9961 32.6866 81.6485 32.6866C82.2669 32.6866 82.6433 33.1674 82.6433 33.785C82.6433 34.4375 82.2288 34.8835 81.6485 34.8835C80.9961 34.9175 80.6181 34.4026 80.6181 33.785ZM105.992 32.0682C105.814 32.0642 105.639 32.1065 105.482 32.1907C105.326 32.275 105.194 32.3985 105.099 32.549V32.1345H104.447V35.4306H105.098V33.5795C105.098 33.0298 105.373 32.6866 105.82 32.6866C105.97 32.6927 106.12 32.7158 106.266 32.7554L106.472 32.137C106.315 32.0973 106.153 32.0742 105.991 32.0682H105.992ZM103.451 33.785V32.137H102.799V32.5515C102.558 32.2423 102.218 32.0707 101.734 32.0707C100.807 32.0707 100.12 32.7919 100.12 33.7875C100.12 34.7832 100.807 35.5044 101.734 35.5044C102.215 35.5044 102.558 35.3328 102.799 35.0236V35.4381H103.451V33.785ZM100.807 33.785C100.807 33.1666 101.186 32.6866 101.838 32.6866C102.456 32.6866 102.833 33.1674 102.833 33.785C102.833 34.4375 102.418 34.8835 101.838 34.8835C101.186 34.9175 100.807 34.4026 100.807 33.785ZM110.078 33.785V30.8322H109.426V32.549C109.185 32.2398 108.845 32.0682 108.361 32.0682C107.435 32.0682 106.747 32.7894 106.747 33.785C106.747 34.7807 107.434 35.5019 108.361 35.5019C108.842 35.5019 109.185 35.3303 109.426 35.0211V35.4356H110.078V33.785ZM107.435 33.785C107.435 33.1666 107.813 32.6866 108.465 32.6866C109.083 32.6866 109.46 33.1674 109.46 33.785C109.46 34.4375 109.045 34.8835 108.465 34.8835C107.812 34.9183 107.434 34.4035 107.434 33.785H107.435Z" fill="black"/>
<path d="M97.9915 7.14099H86.0771V26.5744H97.9915V7.14099Z" fill="#FF5F00"/>
<path d="M87.2792 16.8577C87.2796 14.9882 87.703 13.143 88.5175 11.4603C89.3321 9.77758 90.5168 8.30096 91.9829 7.141C90.1596 5.70742 87.9697 4.8158 85.6636 4.56804C83.3575 4.32029 81.0281 4.7264 78.9419 5.73996C76.8557 6.75352 75.0967 8.33362 73.8661 10.2996C72.6355 12.2657 71.9829 14.5383 71.9829 16.8577C71.9829 19.1771 72.6355 21.4497 73.8661 23.4157C75.0967 25.3818 76.8557 26.9619 78.9419 27.9754C81.0281 28.989 83.3575 29.3951 85.6636 29.1473C87.9697 28.8996 90.1596 28.008 91.9829 26.5744C90.5168 25.4144 89.3321 23.9378 88.5175 22.2551C87.703 20.5724 87.2796 18.7272 87.2792 16.8577Z" fill="#EB001B"/>
<path d="M112.001 16.8577C112.003 19.1755 111.352 21.4469 110.123 23.4122C108.895 25.3775 107.138 26.9573 105.053 27.971C102.969 28.9847 100.642 29.3913 98.3371 29.1443C96.0326 28.8973 93.8441 28.0068 92.022 26.5744C93.4884 25.4148 94.6734 23.9382 95.488 22.2554C96.3027 20.5727 96.7258 18.7273 96.7258 16.8577C96.7258 14.9882 96.3027 13.1428 95.488 11.46C94.6734 9.77727 93.4884 8.30072 92.022 7.14105C93.8441 5.70872 96.0326 4.81813 98.3371 4.57116C100.642 4.32419 102.969 4.73081 105.053 5.7445C107.138 6.75819 108.895 8.33803 110.123 10.3033C111.352 12.2686 112.003 14.54 112.001 16.8577Z" fill="#F79E1B"/>
</g>
<path d="M158.837 25.2655L160.617 14.8248H163.462L161.682 25.2655H158.837Z" fill="#0E4595"/>
<path d="M171.963 15.05C171.399 14.8384 170.516 14.6115 169.413 14.6115C166.601 14.6115 164.62 16.0275 164.603 18.057C164.587 19.5572 166.017 20.3941 167.096 20.8935C168.204 21.4054 168.577 21.7317 168.571 22.1886C168.564 22.8885 167.687 23.2081 166.869 23.2081C165.73 23.2081 165.125 23.0499 164.19 22.6602L163.823 22.4942L163.424 24.8315C164.089 25.123 165.318 25.3754 166.594 25.3885C169.585 25.3885 171.527 23.9886 171.549 21.8214C171.56 20.6336 170.802 19.7299 169.16 18.9847C168.165 18.5017 167.556 18.1794 167.563 17.6903C167.563 17.2564 168.078 16.7923 169.192 16.7923C170.123 16.7779 170.797 16.9808 171.322 17.1923L171.577 17.3128L171.963 15.05Z" fill="#0E4595"/>
<path d="M179.286 14.8247H177.087C176.406 14.8247 175.896 15.0106 175.597 15.6905L171.371 25.2586H174.359C174.359 25.2586 174.847 23.9722 174.958 23.6897C175.285 23.6897 178.188 23.6941 178.603 23.6941C178.688 24.0597 178.949 25.2586 178.949 25.2586H181.589L179.286 14.8247ZM175.797 21.5665C176.033 20.9649 176.931 18.6479 176.931 18.6479C176.914 18.6756 177.165 18.0434 177.308 17.6514L177.501 18.5515C177.501 18.5515 178.046 21.0437 178.159 21.5663H175.797V21.5665Z" fill="#0E4595"/>
<path d="M146.447 14.8248L146.411 15.042C147.536 15.3143 148.54 15.7085 149.42 16.1988L151.945 25.2488L154.956 25.2455L159.436 14.8248H156.422L153.636 21.9446L153.339 20.4976C153.325 20.4529 153.31 20.4082 153.294 20.3633L152.326 15.7063C152.154 15.0452 151.654 14.8479 151.036 14.8248H146.447Z" fill="#0E4595"/>
<defs>
<clipPath id="clip0_1660_1181">
<rect width="40" height="40" fill="white"/>
</clipPath>
<clipPath id="clip1_1660_1181">
<rect width="40" height="40" fill="white" transform="translate(72)"/>
</clipPath>
</defs>
</svg>
