<svg width="24" height="24" viewBox="0 0 24 24" fill="none" xmlns="http://www.w3.org/2000/svg">
<mask id="path-1-outside-1_1204_839" maskUnits="userSpaceOnUse" x="1.99414" y="2" width="21" height="21" fill="black">
<rect fill="white" x="1.99414" y="2" width="21" height="21"/>
<path fill-rule="evenodd" clip-rule="evenodd" d="M17.9778 17.3318C19.2394 15.9168 20.0061 14.0509 20.0061 12.006C20.0061 7.5844 16.4217 4 12.0001 4C7.57854 4 3.99414 7.5844 3.99414 12.006C3.99414 16.4276 7.57854 20.012 12.0001 20.012C13.5211 20.012 14.943 19.5878 16.1541 18.8514L18.4074 19.3347L17.9778 17.3318Z"/>
</mask>
<path d="M17.9778 17.3318L16.485 16.0008L15.8094 16.7586L16.0223 17.7513L17.9778 17.3318ZM16.1541 18.8514L16.5735 16.8958L15.7951 16.7289L15.1149 17.1425L16.1541 18.8514ZM18.4074 19.3347L17.988 21.2902L21.0115 21.9388L20.363 18.9152L18.4074 19.3347ZM18.0061 12.006C18.0061 13.5414 17.4326 14.938 16.485 16.0008L19.4706 18.6628C21.0462 16.8956 22.0061 14.5605 22.0061 12.006H18.0061ZM12.0001 6C15.3171 6 18.0061 8.68897 18.0061 12.006H22.0061C22.0061 6.47983 17.5263 2 12.0001 2V6ZM5.99414 12.006C5.99414 8.68897 8.68311 6 12.0001 6V2C6.47397 2 1.99414 6.47983 1.99414 12.006H5.99414ZM12.0001 18.012C8.68311 18.012 5.99414 15.323 5.99414 12.006H1.99414C1.99414 17.5321 6.47397 22.012 12.0001 22.012V18.012ZM15.1149 17.1425C14.2081 17.6939 13.1443 18.012 12.0001 18.012V22.012C13.8979 22.012 15.6779 21.4817 17.1933 20.5602L15.1149 17.1425ZM15.7346 20.8069L17.988 21.2902L18.8269 17.3792L16.5735 16.8958L15.7346 20.8069ZM20.363 18.9152L19.9333 16.9123L16.0223 17.7513L16.4519 19.7542L20.363 18.9152Z" fill="black" mask="url(#path-1-outside-1_1204_839)"/>
</svg>
