<svg width="24" height="20" viewBox="0 0 24 20" fill="none" xmlns="http://www.w3.org/2000/svg">
<g clip-path="url(#clip0_1004_703)">
<path d="M20.532 4.68753C20.6157 4.68753 20.696 4.65461 20.7552 4.596C20.8145 4.5374 20.8477 4.45791 20.8477 4.37503V3.33441C20.8474 3.06299 20.7383 2.80279 20.5444 2.61087C20.3504 2.41895 20.0875 2.31099 19.8132 2.31066H18.1162L17.729 1.18003C17.7027 1.10314 17.6472 1.0394 17.5742 1.00231C17.5012 0.965213 17.4165 0.957673 17.3381 0.981283L8.14669 3.74628C8.07062 3.77375 8.00808 3.82903 7.97195 3.90076C7.93583 3.97248 7.92886 4.05518 7.9525 4.13182C7.97613 4.20847 8.02856 4.27324 8.09899 4.31278C8.16943 4.35233 8.2525 4.36365 8.33111 4.34441L17.2294 1.66691L18.0776 4.14503C18.1045 4.22352 18.1618 4.28822 18.2369 4.32491C18.312 4.3616 18.3987 4.36726 18.4781 4.34066C18.5574 4.31405 18.6228 4.25736 18.6598 4.18305C18.6969 4.10874 18.7026 4.0229 18.6757 3.94441L18.3303 2.93503H19.8138C20.0362 2.93503 20.2168 3.11378 20.2168 3.33378V4.37503C20.2162 4.54753 20.3576 4.68753 20.532 4.68753Z" fill="black"/>
<path d="M23.0526 9.37482C22.9689 9.37482 22.8886 9.40774 22.8293 9.46635C22.7701 9.52495 22.7368 9.60444 22.7368 9.68732C22.7368 9.7702 22.7701 9.84969 22.8293 9.90829C22.8886 9.9669 22.9689 9.99982 23.0526 9.99982C23.2743 9.99982 23.3684 10.0929 23.3684 10.3123V14.0623C23.3684 14.2817 23.2743 14.3748 23.0526 14.3748H18C17.7783 14.3748 17.6842 14.2817 17.6842 14.0623V10.9373C17.6842 10.7179 17.7783 10.6248 18 10.6248H21.7895C21.8732 10.6248 21.9535 10.5919 22.0128 10.5333C22.072 10.4747 22.1053 10.3952 22.1053 10.3123V6.56232C22.1053 5.99294 21.7333 5.62482 21.1579 5.62482H1.89474C1.116 5.62482 0.631579 5.14544 0.631579 4.37482C0.631579 3.60419 1.116 3.12482 1.89474 3.12482H5.10063L3.18947 3.74857C3.14866 3.76022 3.11064 3.77989 3.07769 3.80642C3.04474 3.83294 3.01754 3.86577 2.99771 3.90294C2.97788 3.94011 2.96583 3.98086 2.96229 4.02275C2.95874 4.06463 2.96377 4.1068 2.97708 4.14672C2.99038 4.18663 3.01169 4.22349 3.03972 4.25507C3.06775 4.28665 3.10193 4.3123 3.14021 4.33051C3.1785 4.34871 3.2201 4.35908 3.26253 4.36101C3.30497 4.36293 3.34735 4.35636 3.38716 4.34169L14.8307 0.60857C14.8701 0.595684 14.9066 0.575245 14.938 0.548421C14.9694 0.521596 14.9952 0.488911 15.0138 0.452232C15.0325 0.415553 15.0436 0.375598 15.0467 0.334648C15.0497 0.293698 15.0446 0.252556 15.0316 0.21357C15.0186 0.174583 14.9979 0.138517 14.9708 0.10743C14.9437 0.0763425 14.9107 0.0508431 14.8736 0.0323875C14.8365 0.0139318 14.7962 0.0028814 14.7548 -0.000132888C14.7134 -0.00314718 14.6718 0.00193371 14.6324 0.0148197L6.99032 2.50857C6.97579 2.50607 6.96253 2.49982 6.94737 2.49982H1.89474C0.761684 2.49982 0 3.25357 0 4.37482V18.1248C0 19.2461 0.761684 19.9998 1.89474 19.9998H21.1579C21.7333 19.9998 22.1053 19.6317 22.1053 19.0623V15.9373C22.1053 15.8544 22.072 15.775 22.0128 15.7163C21.9535 15.6577 21.8732 15.6248 21.7895 15.6248C21.7057 15.6248 21.6254 15.6577 21.5662 15.7163C21.507 15.775 21.4737 15.8544 21.4737 15.9373V19.0623C21.4737 19.2817 21.3796 19.3748 21.1579 19.3748H1.89474C1.116 19.3748 0.631579 18.8954 0.631579 18.1248V5.81982C0.955579 6.09045 1.38442 6.24982 1.89474 6.24982H21.1579C21.3796 6.24982 21.4737 6.34294 21.4737 6.56232V9.99982H18C17.4246 9.99982 17.0526 10.3679 17.0526 10.9373V14.0623C17.0526 14.6317 17.4246 14.9998 18 14.9998H23.0526C23.628 14.9998 24 14.6317 24 14.0623V10.3123C24 9.74294 23.628 9.37482 23.0526 9.37482Z" fill="black"/>
<path d="M20.2104 13.125C20.5592 13.125 20.842 12.8452 20.842 12.5C20.842 12.1548 20.5592 11.875 20.2104 11.875C19.8616 11.875 19.5789 12.1548 19.5789 12.5C19.5789 12.8452 19.8616 13.125 20.2104 13.125Z" fill="black"/>
</g>
<defs>
<clipPath id="clip0_1004_703">
<rect width="24" height="20" fill="white"/>
</clipPath>
</defs>
</svg>
