<svg width="24" height="24" viewBox="0 0 24 24" fill="none" xmlns="http://www.w3.org/2000/svg">
<g clip-path="url(#clip0_60_323)">
<path d="M12.8803 23.151H11.1115C10.7136 23.1508 10.332 22.9929 10.0503 22.7118C9.7687 22.4308 9.61001 22.0495 9.60906 21.6516V19.7094C9.07109 19.5419 8.55191 19.3191 8.05986 19.0446L6.82566 20.271C6.24906 20.8368 5.27226 20.8314 4.70406 20.2644L3.45366 19.0062C3.17396 18.7237 3.01771 18.3419 3.01917 17.9444C3.02063 17.5469 3.17969 17.1662 3.46146 16.8858L4.76646 15.5898C4.57452 15.2025 4.41342 14.8006 4.28466 14.388H2.34546C1.94749 14.3861 1.56643 14.2269 1.28542 13.9451C1.0044 13.6633 0.846247 13.2818 0.845459 12.8838V11.1144C0.845776 10.7166 1.00388 10.3351 1.28508 10.0537C1.56628 9.77224 1.94762 9.61383 2.34546 9.6132H4.28766C4.45488 9.07608 4.67769 8.55788 4.95246 8.067L3.50646 6.6066C3.36703 6.46674 3.25678 6.30057 3.18211 6.11774C3.10743 5.93492 3.06982 5.73908 3.07146 5.5416C3.0721 5.34465 3.11184 5.14978 3.18837 4.9683C3.26489 4.78683 3.37668 4.62234 3.51726 4.4844L4.77186 3.2358C5.34666 2.6718 6.33006 2.6778 6.89406 3.243L8.40846 4.7712C8.79246 4.5792 9.19626 4.4172 9.61386 4.2894V2.349C9.61386 1.5216 10.2871 0.848999 11.1139 0.848999H12.8851C13.2826 0.849634 13.6637 1.00789 13.9448 1.28908C14.2259 1.57026 14.384 1.95142 14.3845 2.349V4.2918C14.8178 4.42605 15.2389 4.59686 15.6433 4.8024L17.1721 3.288C17.7487 2.7216 18.7279 2.73 19.2937 3.2952L20.5417 4.5528C20.8219 4.833 20.9767 5.2104 20.9767 5.6148C20.9766 5.81199 20.9374 6.0072 20.8613 6.18911C20.7852 6.37101 20.6737 6.53597 20.5333 6.6744L19.0783 8.1204C19.3393 8.5968 19.5517 9.0984 19.7113 9.6168H21.6553C22.0528 9.61743 22.4339 9.77569 22.715 10.0569C22.9961 10.3381 23.1542 10.7192 23.1547 11.1168V12.8832C23.1545 13.281 22.9966 13.6626 22.7155 13.9441C22.4344 14.2256 22.0531 14.3842 21.6553 14.385H19.7113C19.5777 14.8191 19.4064 15.2407 19.1995 15.645L20.4949 16.9494C20.7745 17.226 20.9293 17.604 20.9293 18.0114C20.9293 18.411 20.7715 18.7866 20.4859 19.0698L19.2313 20.319C18.6547 20.8848 17.6695 20.874 17.1103 20.3106L15.8857 19.0764C15.4075 19.3392 14.9077 19.5522 14.3935 19.7112V21.6546C14.3867 22.0523 14.2246 22.4315 13.9418 22.7112C13.659 22.9908 13.278 23.1487 12.8803 23.151ZM7.96926 18.3306L8.15946 18.4428C8.72686 18.7801 9.33605 19.0416 9.97146 19.2204L10.1797 19.2786V21.6504C10.1797 22.1628 10.5979 22.5798 11.1115 22.5798H12.8803C13.1275 22.5784 13.3643 22.4806 13.5404 22.3071C13.7165 22.1336 13.8179 21.8981 13.8229 21.651V19.2822L14.0311 19.224C14.6472 19.0514 15.2384 18.7995 15.7897 18.4746L15.9799 18.3624L17.5141 19.908C17.8603 20.2572 18.4717 20.2632 18.8299 19.9122L20.0833 18.6636C20.2603 18.4884 20.3581 18.2562 20.3581 18.0102C20.3581 17.7564 20.2633 17.523 20.0911 17.3526L18.4969 15.7464L18.5983 15.5604C18.8683 15.0636 19.0777 14.5458 19.2217 14.0226L19.2799 13.8132H21.6553C22.1677 13.8132 22.5847 13.3956 22.5847 12.882V11.1156C22.5847 10.6032 22.1677 10.1856 21.6553 10.1856H19.2805L19.2223 9.9768C19.0506 9.35953 18.8 8.76702 18.4765 8.214L18.3649 8.0232L20.1307 6.2682C20.3083 6.0918 20.4061 5.859 20.4061 5.613C20.4061 5.361 20.3107 5.127 20.1373 4.9542L18.8893 3.6966C18.7127 3.5257 18.4769 3.42985 18.2312 3.42918C17.9855 3.42851 17.7491 3.52307 17.5717 3.693L15.7459 5.502L15.5599 5.4018C15.0722 5.13718 14.5563 4.92807 14.0221 4.7784L13.8133 4.7202V2.349C13.8133 1.8366 13.3963 1.419 12.8839 1.419H11.1127C10.6003 1.419 10.1833 1.836 10.1833 2.349V4.7196L9.97446 4.7778C9.45246 4.9224 8.95266 5.1228 8.48766 5.3724L8.29986 5.4732L6.48846 3.6456C6.13986 3.2976 5.52726 3.2922 5.17146 3.642L3.91806 4.8894C3.83077 4.97478 3.76136 5.07669 3.71387 5.18918C3.66638 5.30167 3.64177 5.4225 3.64146 5.5446C3.64042 5.66711 3.66376 5.78861 3.71011 5.90202C3.75646 6.01543 3.82491 6.11849 3.91146 6.2052L5.66526 7.977L5.55306 8.166C5.21583 8.73259 4.9544 9.34099 4.77546 9.9756L4.71726 10.1838H2.34546C1.83306 10.1838 1.41606 10.6014 1.41606 11.1144V12.8838C1.41606 13.3968 1.83306 13.8156 2.34666 13.8174H4.71606L4.77426 14.0262C4.91346 14.5278 5.11326 15.027 5.36946 15.5112L5.46846 15.6978L3.86406 17.2896C3.68949 17.4632 3.59089 17.699 3.58987 17.9452C3.58886 18.1914 3.68552 18.428 3.85866 18.603L5.10846 19.8606C5.46126 20.2116 6.06786 20.2152 6.42546 19.8642L7.96926 18.3306Z" fill="black"/>
<path d="M12.0001 16.3812C9.5839 16.3812 7.6189 14.4156 7.6189 12C7.6189 9.58321 9.5845 7.61761 12.0001 7.61761C14.4163 7.61761 16.3825 9.58381 16.3825 12C16.3819 14.4162 14.4163 16.3812 12.0001 16.3812ZM12.0001 8.18821C10.9896 8.18949 10.0208 8.59151 9.30636 9.3061C8.59188 10.0207 8.19001 10.9895 8.1889 12C8.19017 13.0104 8.59211 13.9791 9.30657 14.6935C10.021 15.408 10.9897 15.8099 12.0001 15.8112C13.0106 15.8101 13.9794 15.4082 14.694 14.6937C15.4086 13.9793 15.8106 13.0105 15.8119 12C15.8105 10.9895 15.4084 10.0208 14.6939 9.30624C13.9793 8.5917 13.0106 8.18964 12.0001 8.18821Z" fill="black"/>
</g>
<defs>
<clipPath id="clip0_60_323">
<rect width="24" height="24" fill="white"/>
</clipPath>
</defs>
</svg>
