<svg xmlns="http://www.w3.org/2000/svg" xmlns:xlink="http://www.w3.org/1999/xlink" version="1.1" x="0px" y="0px" viewBox="0 0 360 450" style="enable-background:new 0 0 360 360;" xml:space="preserve"><style type="text/css">
	.st0{fill:none;stroke:#000000;stroke-width:8;stroke-linecap:round;stroke-linejoin:round;stroke-miterlimit:10;}
</style><path d="M271.8,112.9h-13.4c-6.1-29.2-32.1-51.2-63.1-51.2s-57,22-63.1,51.2h-13.4c-8.8,0-16,7.2-16,16v153c0,8.8,7.2,16,16,16h153  c8.8,0,16-7.2,16-16v-153C287.8,120,280.6,112.9,271.8,112.9z M195.3,69.6c26.6,0,48.9,18.5,54.9,43.2H140.4  C146.4,88.1,168.7,69.6,195.3,69.6z M279.8,281.9c0,4.4-3.6,8-8,8h-153c-4.4,0-8-3.6-8-8v-153c0-4.4,3.6-8,8-8h12.3  c-0.1,1.7-0.2,3.5-0.2,5.2c0,2.2,1.8,4,4,4s4-1.8,4-4c0-1.8,0.1-3.5,0.3-5.2h112.4c0.2,1.7,0.3,3.5,0.3,5.2c0,2.2,1.8,4,4,4  s4-1.8,4-4c0-1.8-0.1-3.5-0.2-5.2h12.3c4.4,0,8,3.6,8,8V281.9z"/><text x="0" y="375" fill="#000000" font-size="5px" font-weight="bold" font-family="'Helvetica Neue', Helvetica, Arial-Unicode, Arial, Sans-serif">Created by Arianne Apostol</text><text x="0" y="380" fill="#000000" font-size="5px" font-weight="bold" font-family="'Helvetica Neue', Helvetica, Arial-Unicode, Arial, Sans-serif">from the Noun Project</text></svg>