<svg width="24" height="24" viewBox="0 0 24 24" fill="none" xmlns="http://www.w3.org/2000/svg">
<path fill-rule="evenodd" clip-rule="evenodd" d="M7.62373 4.06159C7.59977 4.11403 7.57673 4.16693 7.55463 4.22028C7.36382 4.68095 7.24608 5.16773 7.20491 5.66304H4.49981C3.45963 5.66304 2.5931 6.46037 2.50672 7.49695L1.74125 16.6826C1.49832 19.5977 3.79877 22.0978 6.72397 22.0978H17.276C20.2012 22.0978 22.5016 19.5977 22.2587 16.6826L21.4932 7.49695C21.4068 6.46037 20.5403 5.66304 19.5001 5.66304H16.795C16.7539 5.16773 16.6361 4.68095 16.4453 4.22028C16.4232 4.16693 16.4002 4.11403 16.3762 4.06159C16.1379 3.54026 15.8082 3.06525 15.4023 2.65928C14.9555 2.21249 14.4251 1.85807 13.8413 1.61626C13.2575 1.37446 12.6318 1.25 12 1.25C11.3681 1.25 10.7424 1.37446 10.1587 1.61626C9.57488 1.85807 9.04446 2.21249 8.59766 2.65928C8.19169 3.06525 7.86199 3.54026 7.62373 4.06159ZM15.0379 5.66304H8.96204C8.99686 5.39766 9.06637 5.13741 9.16924 4.88907C9.32322 4.51733 9.54891 4.17956 9.83342 3.89505C10.1179 3.61053 10.4557 3.38484 10.8274 3.23087C11.1992 3.07689 11.5976 2.99764 12 2.99764C12.4023 2.99764 12.8008 3.07689 13.1725 3.23087C13.5442 3.38484 13.882 3.61053 14.1665 3.89505C14.451 4.17956 14.6767 4.51733 14.8307 4.88907C14.9336 5.13741 15.0031 5.39766 15.0379 5.66304ZM19.5001 7.66304L4.49981 7.66304L3.73434 16.8487C3.58859 18.5977 4.96885 20.0978 6.72397 20.0978H17.276C19.0311 20.0978 20.4114 18.5977 20.2656 16.8487L19.5001 7.66304ZM9.83342 11.8368C9.55301 11.5564 9.32974 11.2243 9.17594 10.8589L9.16924 10.8428C9.12713 10.7412 9.09061 10.6375 9.05977 10.5323C9.02925 10.4282 8.98642 10.3273 8.93287 10.2335C8.74826 9.91 8.43629 9.67029 8.06219 9.67029C7.5796 9.67029 7.18034 10.0647 7.2675 10.5393C7.2975 10.7027 7.33595 10.8645 7.38273 11.024C7.43116 11.1892 7.48851 11.352 7.55463 11.5116L7.57487 11.5597C7.81603 12.1245 8.16317 12.6381 8.59766 13.0726C9.04446 13.5194 9.57488 13.8738 10.1587 14.1156C10.7424 14.3574 11.3681 14.4819 12 14.4819C12.6318 14.4819 13.2575 14.3574 13.8413 14.1156C14.4251 13.8738 14.9555 13.5194 15.4023 13.0726C15.8368 12.6381 16.1839 12.1245 16.4251 11.5597L16.4453 11.5116C16.5114 11.352 16.5688 11.1892 16.6172 11.024C16.664 10.8645 16.7024 10.7027 16.7324 10.5393C16.8196 10.0647 16.4203 9.67029 15.9377 9.67029C15.5636 9.67029 15.2517 9.91 15.0671 10.2335C15.0135 10.3273 14.9707 10.4282 14.9402 10.5323C14.9093 10.6375 14.8728 10.7412 14.8307 10.8428L14.824 10.8589C14.6702 11.2243 14.4469 11.5564 14.1665 11.8368C13.882 12.1214 13.5442 12.347 13.1725 12.501C12.8008 12.655 12.4023 12.7342 12 12.7342C11.5976 12.7342 11.1992 12.655 10.8274 12.501C10.4557 12.347 10.1179 12.1214 9.83342 11.8368Z" fill="black"/>
</svg>
