<svg width="24" height="24" viewBox="0 0 24 24" fill="none" xmlns="http://www.w3.org/2000/svg">
<path d="M21.8 10.6L19.8 8.80001L12.3 2.10001C12.1 1.90001 11.8 1.90001 11.6 2.10001L4.20005 8.80001L2.20005 10.6C2.00005 10.8 2.00005 11.1 2.20005 11.3C2.40005 11.5 2.70005 11.5 2.90005 11.3L4.00005 10.3V21.5C4.00005 21.8 4.30005 22 4.50005 22H19.4C19.7 22 19.9 21.8 19.9 21.5V10.3L21.1 11.4C21.2001 11.5 21.3 11.5 21.4 11.5C21.5 11.5 21.7 11.4 21.8 11.3C22.1 11.1 22 10.8 21.8 10.6ZM8.10005 21C8.50005 19.4 9.90005 18.2 11.5 18C13.5 17.8 15.3 19.1 15.8 21H8.10005ZM9.50005 14.5C9.50005 13.1 10.6 12 12 12C13.4 12 14.5 13.1 14.5 14.5C14.5 15.9 13.4 17 12 17C10.6 17 9.50005 15.9 9.50005 14.5ZM19 21H16.9C16.6 19.4 15.5 18 14 17.4C14.9 16.8 15.6 15.7 15.6 14.5C15.6 12.6 14 11 12.1 11C10.2 11 8.60005 12.6 8.60005 14.5C8.60005 15.7 9.20005 16.8 10.2 17.4C8.60005 18 7.50005 19.3 7.10005 21H5.00005V9.40001L12 3.20001L19 9.40001V21Z" fill="black"/>
</svg>
