<svg width="321" height="127" viewBox="0 0 321 127" fill="none" xmlns="http://www.w3.org/2000/svg">
<g clip-path="url(#clip0_1_4)">
<rect width="375" height="812" transform="translate(-27 -119)" fill="white"/>
<rect x="-1.52588e-05" width="321" height="127" fill="#EA2E2E"/>
<path d="M242.844 38L237.85 20.5455H241.881L244.771 32.6733H244.915L248.103 20.5455H251.555L254.734 32.6989H254.887L257.776 20.5455H261.808L256.813 38H253.217L249.893 26.5881H249.756L246.441 38H242.844ZM268.223 38.2557C266.899 38.2557 265.754 37.9744 264.788 37.4119C263.828 36.8437 263.087 36.054 262.564 35.0426C262.041 34.0256 261.78 32.8466 261.78 31.5057C261.78 30.1534 262.041 28.9716 262.564 27.9602C263.087 26.9432 263.828 26.1534 264.788 25.5909C265.754 25.0227 266.899 24.7386 268.223 24.7386C269.547 24.7386 270.689 25.0227 271.649 25.5909C272.615 26.1534 273.359 26.9432 273.882 27.9602C274.405 28.9716 274.666 30.1534 274.666 31.5057C274.666 32.8466 274.405 34.0256 273.882 35.0426C273.359 36.054 272.615 36.8437 271.649 37.4119C270.689 37.9744 269.547 38.2557 268.223 38.2557ZM268.24 35.4432C268.842 35.4432 269.345 35.2727 269.749 34.9318C270.152 34.5852 270.456 34.1136 270.661 33.517C270.871 32.9205 270.976 32.2415 270.976 31.4801C270.976 30.7188 270.871 30.0398 270.661 29.4432C270.456 28.8466 270.152 28.375 269.749 28.0284C269.345 27.6818 268.842 27.5085 268.24 27.5085C267.632 27.5085 267.121 27.6818 266.706 28.0284C266.297 28.375 265.987 28.8466 265.777 29.4432C265.572 30.0398 265.47 30.7188 265.47 31.4801C265.47 32.2415 265.572 32.9205 265.777 33.517C265.987 34.1136 266.297 34.5852 266.706 34.9318C267.121 35.2727 267.632 35.4432 268.24 35.4432ZM277.027 38V24.9091H280.547V27.1932H280.683C280.922 26.3807 281.322 25.767 281.885 25.3523C282.447 24.9318 283.095 24.7216 283.828 24.7216C284.01 24.7216 284.206 24.733 284.416 24.7557C284.626 24.7784 284.811 24.8097 284.97 24.8494V28.071C284.8 28.0199 284.564 27.9744 284.263 27.9347C283.962 27.8949 283.686 27.875 283.436 27.875C282.902 27.875 282.425 27.9915 282.004 28.2244C281.589 28.4517 281.26 28.7699 281.016 29.179C280.777 29.5881 280.658 30.0597 280.658 30.5938V38H277.027ZM291.062 38.2131C290.067 38.2131 289.167 37.9574 288.36 37.446C287.559 36.929 286.923 36.1705 286.451 35.1705C285.985 34.1648 285.752 32.9318 285.752 31.4716C285.752 29.9716 285.994 28.7244 286.477 27.7301C286.96 26.7301 287.602 25.983 288.403 25.4886C289.21 24.9886 290.093 24.7386 291.053 24.7386C291.786 24.7386 292.397 24.8636 292.886 25.1136C293.38 25.358 293.778 25.6648 294.079 26.0341C294.386 26.3977 294.619 26.7557 294.778 27.108H294.888V20.5455H298.511V38H294.931V35.9034H294.778C294.607 36.267 294.366 36.6278 294.053 36.9858C293.746 37.3381 293.346 37.6307 292.852 37.8636C292.363 38.0966 291.766 38.2131 291.062 38.2131ZM292.212 35.3239C292.798 35.3239 293.292 35.1648 293.695 34.8466C294.104 34.5227 294.417 34.071 294.633 33.4915C294.854 32.9119 294.965 32.233 294.965 31.4545C294.965 30.6761 294.857 30 294.641 29.4261C294.425 28.8523 294.113 28.4091 293.704 28.0966C293.295 27.7841 292.798 27.6278 292.212 27.6278C291.616 27.6278 291.113 27.7898 290.704 28.1136C290.295 28.4375 289.985 28.8864 289.775 29.4602C289.565 30.0341 289.46 30.6989 289.46 31.4545C289.46 32.2159 289.565 32.8892 289.775 33.4744C289.991 34.054 290.3 34.5085 290.704 34.8381C291.113 35.1619 291.616 35.3239 292.212 35.3239Z" fill="white"/>
<path d="M241.353 54.5653C241.285 53.8778 240.992 53.3437 240.475 52.9631C239.958 52.5824 239.256 52.392 238.37 52.392C237.768 52.392 237.259 52.4773 236.844 52.6477C236.43 52.8125 236.112 53.0426 235.89 53.3381C235.674 53.6335 235.566 53.9688 235.566 54.3438C235.555 54.6562 235.62 54.929 235.762 55.1619C235.91 55.3949 236.112 55.5966 236.367 55.767C236.623 55.9318 236.918 56.0767 237.254 56.2017C237.589 56.321 237.947 56.4233 238.327 56.5085L239.896 56.8835C240.657 57.054 241.356 57.2812 241.992 57.5653C242.629 57.8494 243.18 58.1989 243.646 58.6136C244.112 59.0284 244.472 59.517 244.728 60.0795C244.989 60.642 245.123 61.2869 245.129 62.0142C245.123 63.0824 244.85 64.0085 244.31 64.7926C243.776 65.571 243.004 66.1761 241.992 66.608C240.987 67.0341 239.773 67.2472 238.353 67.2472C236.944 67.2472 235.717 67.0312 234.671 66.5994C233.631 66.1676 232.819 65.5284 232.234 64.6818C231.654 63.8295 231.35 62.7756 231.322 61.5199H234.893C234.933 62.1051 235.1 62.5937 235.396 62.9858C235.697 63.3722 236.097 63.6648 236.597 63.8636C237.103 64.0568 237.674 64.1534 238.31 64.1534C238.935 64.1534 239.478 64.0625 239.938 63.8807C240.404 63.6989 240.765 63.446 241.021 63.1222C241.276 62.7983 241.404 62.4261 241.404 62.0057C241.404 61.6136 241.288 61.2841 241.055 61.017C240.827 60.75 240.492 60.5227 240.049 60.3352C239.612 60.1477 239.075 59.9773 238.438 59.8239L236.538 59.3466C235.066 58.9886 233.904 58.429 233.052 57.6676C232.2 56.9062 231.776 55.8807 231.782 54.5909C231.776 53.5341 232.058 52.6108 232.626 51.821C233.2 51.0312 233.987 50.4148 234.987 49.9716C235.987 49.5284 237.123 49.3068 238.396 49.3068C239.691 49.3068 240.822 49.5284 241.788 49.9716C242.759 50.4148 243.515 51.0312 244.055 51.821C244.594 52.6108 244.873 53.5256 244.89 54.5653H241.353ZM253.509 67.2557C252.162 67.2557 251.003 66.983 250.031 66.4375C249.065 65.8864 248.321 65.108 247.798 64.1023C247.276 63.0909 247.014 61.8949 247.014 60.5142C247.014 59.1676 247.276 57.9858 247.798 56.9688C248.321 55.9517 249.057 55.1591 250.006 54.5909C250.96 54.0227 252.08 53.7386 253.364 53.7386C254.227 53.7386 255.031 53.8778 255.776 54.1562C256.526 54.429 257.179 54.8409 257.736 55.392C258.298 55.9432 258.736 56.6364 259.048 57.4716C259.361 58.3011 259.517 59.2727 259.517 60.3864V61.3835H248.463V59.1335H256.099C256.099 58.6108 255.986 58.1477 255.759 57.7443C255.531 57.3409 255.216 57.0256 254.812 56.7983C254.415 56.5653 253.952 56.4489 253.423 56.4489C252.872 56.4489 252.384 56.5767 251.957 56.8324C251.537 57.0824 251.207 57.4205 250.969 57.8466C250.73 58.267 250.608 58.7358 250.602 59.2528V61.392C250.602 62.0398 250.722 62.5994 250.96 63.071C251.205 63.5426 251.548 63.9062 251.991 64.1619C252.435 64.4176 252.96 64.5455 253.568 64.5455C253.972 64.5455 254.341 64.4886 254.676 64.375C255.011 64.2614 255.298 64.0909 255.537 63.8636C255.776 63.6364 255.957 63.358 256.082 63.0284L259.44 63.25C259.27 64.0568 258.92 64.7614 258.392 65.3636C257.869 65.9602 257.193 66.4261 256.364 66.7614C255.54 67.0909 254.588 67.2557 253.509 67.2557ZM265.619 67.2472C264.784 67.2472 264.04 67.1023 263.386 66.8125C262.733 66.517 262.216 66.0824 261.835 65.5085C261.46 64.929 261.273 64.2074 261.273 63.3438C261.273 62.6165 261.406 62.0057 261.673 61.5114C261.94 61.017 262.304 60.6193 262.764 60.3182C263.224 60.017 263.747 59.7898 264.332 59.6364C264.923 59.483 265.543 59.375 266.19 59.3125C266.952 59.233 267.565 59.1591 268.031 59.0909C268.497 59.017 268.835 58.9091 269.045 58.767C269.256 58.625 269.361 58.4148 269.361 58.1364V58.0852C269.361 57.5455 269.19 57.1278 268.849 56.8324C268.514 56.5369 268.037 56.3892 267.418 56.3892C266.764 56.3892 266.244 56.5341 265.858 56.8239C265.472 57.108 265.216 57.4659 265.091 57.8977L261.733 57.625C261.903 56.8295 262.239 56.142 262.739 55.5625C263.239 54.9773 263.884 54.5284 264.673 54.2159C265.469 53.8977 266.389 53.7386 267.435 53.7386C268.162 53.7386 268.858 53.8239 269.523 53.9943C270.193 54.1648 270.787 54.429 271.304 54.7869C271.827 55.1449 272.239 55.6051 272.54 56.1676C272.841 56.7244 272.991 57.392 272.991 58.1705V67H269.548V65.1847H269.446C269.236 65.5938 268.955 65.9545 268.602 66.267C268.25 66.5739 267.827 66.8153 267.332 66.9915C266.838 67.1619 266.267 67.2472 265.619 67.2472ZM266.659 64.7415C267.193 64.7415 267.665 64.6364 268.074 64.4261C268.483 64.2102 268.804 63.9205 269.037 63.5568C269.27 63.1932 269.386 62.7812 269.386 62.321V60.9318C269.273 61.0057 269.116 61.0739 268.918 61.1364C268.724 61.1932 268.506 61.2472 268.261 61.2983C268.017 61.3437 267.773 61.3864 267.528 61.4261C267.284 61.4602 267.062 61.4915 266.864 61.5199C266.438 61.5824 266.065 61.6818 265.747 61.8182C265.429 61.9545 265.182 62.1392 265.006 62.3722C264.83 62.5994 264.741 62.8835 264.741 63.2244C264.741 63.7188 264.92 64.0966 265.278 64.358C265.642 64.6136 266.102 64.7415 266.659 64.7415ZM275.808 67V53.9091H279.328V56.1932H279.464C279.703 55.3807 280.104 54.767 280.666 54.3523C281.229 53.9318 281.876 53.7216 282.609 53.7216C282.791 53.7216 282.987 53.733 283.197 53.7557C283.408 53.7784 283.592 53.8097 283.751 53.8494V57.071C283.581 57.0199 283.345 56.9744 283.044 56.9347C282.743 56.8949 282.467 56.875 282.217 56.875C281.683 56.875 281.206 56.9915 280.786 57.2244C280.371 57.4517 280.041 57.7699 279.797 58.179C279.558 58.5881 279.439 59.0597 279.439 59.5938V67H275.808ZM290.934 67.2557C289.593 67.2557 288.44 66.9716 287.474 66.4034C286.513 65.8295 285.775 65.0341 285.258 64.017C284.746 63 284.491 61.8295 284.491 60.5057C284.491 59.1648 284.749 57.9886 285.266 56.9773C285.789 55.9602 286.531 55.1676 287.491 54.5994C288.451 54.0256 289.593 53.7386 290.917 53.7386C292.059 53.7386 293.059 53.946 293.917 54.3608C294.775 54.7756 295.454 55.358 295.954 56.108C296.454 56.858 296.729 57.7386 296.781 58.75H293.354C293.258 58.0966 293.002 57.571 292.587 57.1733C292.178 56.7699 291.641 56.5682 290.977 56.5682C290.414 56.5682 289.923 56.7216 289.502 57.0284C289.087 57.3295 288.763 57.7699 288.531 58.3494C288.298 58.929 288.181 59.6307 288.181 60.4545C288.181 61.2898 288.295 62 288.522 62.5852C288.755 63.1705 289.082 63.6165 289.502 63.9233C289.923 64.2301 290.414 64.3835 290.977 64.3835C291.391 64.3835 291.763 64.2983 292.093 64.1278C292.428 63.9574 292.704 63.7102 292.92 63.3864C293.141 63.0568 293.286 62.6619 293.354 62.2017H296.781C296.724 63.2017 296.451 64.0824 295.962 64.8438C295.479 65.5994 294.812 66.1903 293.96 66.6165C293.107 67.0426 292.099 67.2557 290.934 67.2557ZM302.736 59.4318V67H299.105V49.5455H302.634V56.2188H302.787C303.082 55.446 303.56 54.8409 304.219 54.4034C304.878 53.9602 305.705 53.7386 306.699 53.7386C307.608 53.7386 308.401 53.9375 309.077 54.3352C309.759 54.7273 310.287 55.2926 310.662 56.0312C311.043 56.7642 311.23 57.642 311.224 58.6648V67H307.594V59.3125C307.599 58.5057 307.395 57.8778 306.98 57.429C306.571 56.9801 305.997 56.7557 305.259 56.7557C304.764 56.7557 304.327 56.8608 303.946 57.071C303.571 57.2812 303.276 57.5881 303.06 57.9915C302.849 58.3892 302.741 58.8693 302.736 59.4318Z" fill="#FDA214"/>
<circle cx="35.5" cy="11.5" r="7.5" fill="#FDA214"/>
<circle cx="35.5" cy="37.5" r="7.5" fill="#FDA214"/>
<circle cx="37.5" cy="65.5" r="7.5" fill="#FDA214"/>
<circle cx="40.5" cy="93.5" r="7.5" fill="#FDA214"/>
<circle cx="42.5" cy="119.5" r="7.5" fill="#FDA214"/>
<circle cx="91.5" cy="46.5" r="7.5" fill="#FDA214"/>
<circle cx="91.5" cy="73.5" r="7.5" fill="#FDA214"/>
<circle cx="92.5" cy="99.5" r="7.5" fill="#FDA214"/>
<path d="M29.3753 -15.2756L33.3445 -21.3697L34.6329 -20.5305L32.9953 -18.0161L35.6109 -16.3126L37.2485 -18.827L38.534 -17.9897L34.5649 -11.8956L33.2794 -12.7329L34.919 -15.2503L32.3034 -16.9538L30.6638 -14.4364L29.3753 -15.2756ZM48.6423 -11.4062L44.6732 -5.31203L43.3847 -6.15121L47.3538 -12.2453L48.6423 -11.4062ZM61.0755 1.0313C60.6427 1.69586 60.1485 2.17919 59.5929 2.48128C59.0393 2.78467 58.4662 2.91853 57.8735 2.88285C57.2841 2.84648 56.7206 2.65322 56.183 2.30308C55.6414 1.95035 55.2355 1.51081 54.9653 0.984449C54.695 0.458089 54.5867 -0.119582 54.6404 -0.748564C54.6941 -1.37755 54.9367 -2.02333 55.3682 -2.6859C55.801 -3.35047 56.2942 -3.83444 56.8478 -4.13783C57.4014 -4.44122 57.9729 -4.57473 58.5623 -4.53836C59.153 -4.50397 59.7191 -4.31042 60.2607 -3.95769C60.7983 -3.60755 61.2022 -3.16929 61.4725 -2.64293C61.746 -2.11727 61.856 -1.53994 61.8023 -0.910958C61.7506 -0.280684 61.5083 0.366734 61.0755 1.0313ZM59.7692 0.180487C60.0496 -0.24999 60.2215 -0.655011 60.2851 -1.03457C60.3507 -1.41285 60.3171 -1.75394 60.1845 -2.05786C60.0519 -2.36178 59.8299 -2.61516 59.5184 -2.81801C59.207 -3.02086 58.8854 -3.1215 58.5539 -3.11992C58.2223 -3.11834 57.8957 -3.01175 57.5743 -2.80015C57.2548 -2.58726 56.9549 -2.26557 56.6745 -1.8351C56.3941 -1.40462 56.2212 -1.00024 56.1556 -0.621972C56.0921 -0.242408 56.1266 0.0993328 56.2592 0.403252C56.3918 0.70717 56.6138 0.960555 56.9253 1.16341C57.2367 1.36626 57.5583 1.46689 57.8898 1.46531C58.2214 1.46373 58.547 1.35649 58.8664 1.1436C59.1879 0.932002 59.4888 0.610964 59.7692 0.180487ZM67.8029 9.75252L71.772 3.65839L75.807 6.2864L75.1151 7.3487L72.3686 5.55987L71.4228 7.01199L73.9015 8.6264L73.2097 9.6887L70.7309 8.0743L69.0913 10.5917L67.8029 9.75252ZM87.1891 16.5051C87.2418 16.3332 87.2666 16.1671 87.2636 16.0069C87.2618 15.8448 87.2316 15.6895 87.1729 15.541C87.1174 15.3919 87.0339 15.2513 86.9221 15.1192C86.8124 14.9884 86.6742 14.8687 86.5076 14.7602C86.1961 14.5573 85.872 14.4564 85.5351 14.4574C85.2002 14.4597 84.8711 14.566 84.5476 14.7763C84.2255 14.9846 83.9262 15.301 83.6497 15.7255C83.3732 16.1501 83.2025 16.5531 83.1376 16.9346C83.0728 17.3162 83.1073 17.6622 83.2413 17.9727C83.3766 18.2812 83.605 18.5401 83.9263 18.7494C84.2179 18.9393 84.5005 19.0499 84.774 19.0811C85.0508 19.1116 85.3057 19.0672 85.5389 18.9478C85.774 18.8297 85.9762 18.6407 86.1454 18.3809L86.3821 18.5901L84.811 17.5668L85.4428 16.5967L87.9929 18.2577L87.4929 19.0254C87.144 19.561 86.7312 19.9476 86.2544 20.1851C85.7789 20.4207 85.2749 20.5134 84.7425 20.4633C84.2114 20.4112 83.6899 20.2185 83.1781 19.8852C82.6068 19.5131 82.1869 19.0602 81.9186 18.5266C81.6515 17.991 81.5487 17.4113 81.6104 16.7875C81.6752 16.163 81.917 15.5294 82.3356 14.8866C82.6573 14.3927 83.0156 13.9988 83.4104 13.705C83.8084 13.4105 84.2252 13.213 84.6608 13.1124C85.0964 13.0119 85.5327 13.0036 85.9696 13.0876C86.4065 13.1715 86.8263 13.3447 87.229 13.607C87.5742 13.8318 87.8626 14.0917 88.0943 14.3866C88.3272 14.6796 88.4993 14.9923 88.6106 15.3247C88.7238 15.6584 88.7718 15.999 88.7545 16.3465C88.7385 16.6921 88.6531 17.0292 88.4984 17.3579L87.1891 16.5051ZM96.7545 28.6089L94.5941 27.2018L98.5633 21.1077L100.741 22.5264C101.354 22.9256 101.803 23.3913 102.086 23.9234C102.371 24.4536 102.484 25.0233 102.427 25.6326C102.371 26.2433 102.137 26.865 101.725 27.4978C101.311 28.1326 100.836 28.6 100.299 28.8999C99.7633 29.2011 99.1931 29.3284 98.5878 29.2817C97.9845 29.2363 97.3734 29.012 96.7545 28.6089ZM96.6016 26.9371L97.4199 27.47C97.8008 27.7181 98.1651 27.8593 98.5128 27.8937C98.8639 27.9273 99.1978 27.844 99.5148 27.6436C99.8351 27.4425 100.143 27.1148 100.439 26.6606C100.732 26.2102 100.906 25.799 100.959 25.4267C101.014 25.0558 100.955 24.7183 100.783 24.4141C100.611 24.1099 100.335 23.8338 99.954 23.5858L99.1327 23.0509L96.6016 26.9371ZM108.448 36.225L112.417 30.1308L114.821 31.6968C115.282 31.9965 115.621 32.3347 115.839 32.7112C116.06 33.0871 116.159 33.4804 116.134 33.891C116.113 34.301 115.971 34.7073 115.709 35.11C115.445 35.5147 115.131 35.806 114.767 35.9839C114.404 36.1599 114.006 36.2173 113.574 36.1563C113.144 36.0965 112.695 35.9142 112.227 35.6093L110.617 34.5608L111.291 33.5253L112.693 34.4381C112.939 34.5983 113.165 34.6977 113.372 34.7362C113.578 34.7747 113.765 34.7523 113.932 34.6691C114.102 34.5872 114.251 34.446 114.382 34.2457C114.514 34.0433 114.584 33.8462 114.593 33.6544C114.604 33.4638 114.551 33.2792 114.433 33.1006C114.318 32.9212 114.136 32.7508 113.888 32.5893L113.02 32.0234L109.736 37.0642L108.448 36.225ZM113.545 35.5952L113.254 39.3549L111.831 38.4285L112.156 34.6901L113.545 35.5952ZM121.705 44.859L125.674 38.7649L129.78 41.4394L129.088 42.5017L126.27 40.6664L125.324 42.1185L127.931 43.8162L127.239 44.8786L124.633 43.1808L123.685 44.6359L126.515 46.479L125.823 47.5413L121.705 44.859ZM135.643 53.9374L134.263 53.0381L140.335 48.3142L141.996 49.3956L140.128 56.858L138.747 55.9588L140.282 50.263L140.235 50.232L135.643 53.9374ZM137.117 51.4858L140.378 53.6099L139.723 54.6157L136.462 52.4916L137.117 51.4858ZM152.588 56.2942L154.177 57.3291L153.188 62.5167L153.26 62.5632L157.605 59.5617L159.194 60.5967L155.224 66.6908L153.975 65.8768L156.558 61.9103L156.508 61.8773L152.366 64.7869L151.515 64.2326L152.512 59.2538L152.461 59.2209L149.868 63.2023L148.619 62.3883L152.588 56.2942ZM164.044 72.4347L168.013 66.3406L172.048 68.9686L171.356 70.0309L168.609 68.2421L167.664 69.6942L170.142 71.3086L169.45 72.3709L166.972 70.7565L165.332 73.2739L164.044 72.4347ZM176.703 80.6797L180.672 74.5856L184.778 77.2601L184.086 78.3224L181.268 76.4871L180.323 77.9392L182.929 79.6369L182.237 80.6992L179.631 79.0015L178.683 80.4566L181.513 82.2997L180.821 83.362L176.703 80.6797ZM195.142 84.0104L196.586 84.9503L196.266 88.4799L196.325 88.5187L199.424 86.7992L200.868 87.7392L196.079 90.2312L194.676 92.3856L193.396 91.5522L194.799 89.3979L195.142 84.0104ZM210.617 94.0893L206.648 100.183L205.36 99.3442L209.329 93.2501L210.617 94.0893ZM215.466 105.926L219.435 99.8322L221.839 101.398C222.301 101.699 222.638 102.044 222.848 102.432C223.06 102.819 223.149 103.223 223.117 103.646C223.088 104.068 222.942 104.481 222.678 104.886C222.415 105.29 222.095 105.591 221.719 105.786C221.343 105.982 220.933 106.059 220.489 106.015C220.047 105.973 219.592 105.8 219.124 105.495L217.592 104.497L218.264 103.464L219.588 104.327C219.836 104.488 220.069 104.579 220.285 104.598C220.504 104.617 220.703 104.576 220.882 104.475C221.064 104.373 221.221 104.222 221.351 104.021C221.483 103.819 221.557 103.616 221.574 103.412C221.594 103.208 221.55 103.011 221.442 102.822C221.335 102.631 221.156 102.453 220.906 102.291L220.037 101.725L216.754 106.766L215.466 105.926ZM232.261 108.186L233.704 109.126L233.384 112.655L233.444 112.694L236.543 110.975L237.986 111.915L233.197 114.407L231.794 116.561L230.514 115.728L231.918 113.573L232.261 108.186ZM250.063 124.12C249.63 124.785 249.136 125.268 248.58 125.57C248.027 125.873 247.453 126.007 246.861 125.971C246.271 125.935 245.708 125.742 245.17 125.392C244.629 125.039 244.223 124.599 243.952 124.073C243.682 123.547 243.574 122.969 243.628 122.34C243.681 121.711 243.924 121.065 244.355 120.403C244.788 119.738 245.281 119.254 245.835 118.951C246.389 118.647 246.96 118.514 247.55 118.55C248.14 118.585 248.706 118.778 249.248 119.131C249.786 119.481 250.189 119.919 250.46 120.446C250.733 120.971 250.843 121.549 250.79 122.178C250.738 122.808 250.496 123.455 250.063 124.12ZM248.756 123.269C249.037 122.839 249.209 122.434 249.272 122.054C249.338 121.676 249.304 121.335 249.172 121.031C249.039 120.727 248.817 120.473 248.506 120.271C248.194 120.068 247.873 119.967 247.541 119.969C247.209 119.97 246.883 120.077 246.562 120.288C246.242 120.501 245.942 120.823 245.662 121.254C245.381 121.684 245.208 122.088 245.143 122.467C245.079 122.846 245.114 123.188 245.246 123.492C245.379 123.796 245.601 124.049 245.913 124.252C246.224 124.455 246.545 124.556 246.877 124.554C247.209 124.552 247.534 124.445 247.854 124.232C248.175 124.021 248.476 123.7 248.756 123.269ZM25.102 -0.483335L26.3905 0.355845L23.8128 4.31346C23.5234 4.75782 23.1641 5.07752 22.7347 5.27254C22.3074 5.46886 21.8435 5.53686 21.3432 5.47656C20.8441 5.41427 20.3427 5.21903 19.8388 4.89086C19.3329 4.56139 18.9506 4.18102 18.6919 3.74975C18.4344 3.31649 18.3091 2.86475 18.3159 2.39452C18.3227 1.92429 18.4708 1.467 18.7602 1.02263L21.3378 -2.93498L22.6263 -2.0958L20.1204 1.75171C19.9692 1.98381 19.8854 2.22307 19.869 2.46949C19.8546 2.7172 19.907 2.95336 20.0263 3.17797C20.1456 3.40257 20.3292 3.59563 20.5772 3.75713C20.8271 3.91993 21.078 4.00983 21.3296 4.02684C21.5833 4.04513 21.8195 3.99697 22.0383 3.88234C22.259 3.769 22.4449 3.59628 22.5961 3.36418L25.102 -0.483335ZM39.1955 11.7344L37.8921 10.8855C37.9782 10.7014 38.0271 10.52 38.039 10.3413C38.0521 10.1605 38.0316 9.9861 37.9772 9.81792C37.9229 9.64975 37.8365 9.49176 37.718 9.34397C37.6016 9.19748 37.456 9.06738 37.2815 8.95368C36.966 8.74824 36.6402 8.64766 36.3041 8.65191C35.9692 8.65419 35.6404 8.76211 35.3177 8.9757C34.9962 9.18729 34.6979 9.50436 34.4227 9.92691C34.1397 10.3614 33.9665 10.7684 33.9029 11.1479C33.8413 11.5288 33.8785 11.8708 34.0143 12.174C34.1502 12.4773 34.3719 12.729 34.6794 12.9293C34.852 13.0417 35.0265 13.1229 35.2031 13.1729C35.3816 13.2241 35.5568 13.2436 35.7287 13.2313C35.9019 13.2169 36.0675 13.1708 36.2256 13.093C36.3856 13.0164 36.5335 12.9065 36.6692 12.7632L37.9687 13.618C37.7528 13.8758 37.4928 14.0906 37.1886 14.2626C36.8877 14.434 36.5577 14.5481 36.1984 14.6052C35.8425 14.6615 35.47 14.6478 35.081 14.564C34.6953 14.4794 34.3071 14.3099 33.9163 14.0554C33.3727 13.7014 32.9668 13.2618 32.6985 12.7368C32.4323 12.213 32.3269 11.6373 32.3826 11.0096C32.4402 10.3832 32.6848 9.73868 33.1164 9.0761C33.5492 8.41154 34.0424 7.92756 34.596 7.62417C35.1496 7.32079 35.7201 7.18663 36.3075 7.22171C36.8962 7.2548 37.4584 7.44577 37.994 7.79462C38.3471 8.02461 38.6421 8.28739 38.879 8.58297C39.118 8.87984 39.2924 9.19972 39.4025 9.54263C39.5138 9.88354 39.5537 10.2387 39.5222 10.6081C39.4927 10.9787 39.3838 11.3542 39.1955 11.7344ZM53.2539 20.8908L51.9506 20.0419C52.0366 19.8578 52.0856 19.6764 52.0974 19.4976C52.1106 19.3169 52.09 19.1425 52.0357 18.9743C51.9814 18.8061 51.895 18.6481 51.7765 18.5003C51.66 18.3538 51.5145 18.2237 51.3399 18.11C51.0245 17.9046 50.6987 17.804 50.3626 17.8083C50.0277 17.8106 49.6989 17.9185 49.3761 18.1321C49.0547 18.3437 48.7563 18.6607 48.4811 19.0833C48.1982 19.5177 48.0249 19.9247 47.9613 20.3043C47.8998 20.6851 47.9369 21.0272 48.0728 21.3304C48.2087 21.6336 48.4304 21.8854 48.7379 22.0857C48.9104 22.1981 49.085 22.2793 49.2615 22.3292C49.44 22.3805 49.6152 22.4 49.7871 22.3876C49.9603 22.3733 50.126 22.3272 50.284 22.2493C50.4441 22.1728 50.592 22.0628 50.7277 21.9196L52.0271 22.7744C51.8112 23.0321 51.5512 23.247 51.2471 23.419C50.9462 23.5903 50.6161 23.7045 50.2569 23.7616C49.9009 23.8179 49.5285 23.8042 49.1395 23.7203C48.7538 23.6358 48.3656 23.4663 47.9748 23.2118C47.4312 22.8577 47.0253 22.4182 46.757 21.8931C46.4907 21.3694 46.3854 20.7936 46.441 20.1659C46.4987 19.5395 46.7433 18.895 47.1748 18.2325C47.6077 17.5679 48.1009 17.0839 48.6544 16.7805C49.208 16.4772 49.7785 16.343 50.3659 16.3781C50.9547 16.4112 51.5168 16.6021 52.0524 16.951C52.4055 17.181 52.7006 17.4438 52.9375 17.7393C53.1764 18.0362 53.3509 18.3561 53.4609 18.699C53.5723 19.0399 53.6122 19.3951 53.5807 19.7644C53.5512 20.1351 53.4423 20.5105 53.2539 20.8908ZM64.5331 25.1984L64.4093 28.0758L64.4569 28.1068L67.0445 26.8341L68.4996 27.7818L64.6553 29.6176L64.5721 33.9031L63.0903 32.9379L63.1952 30.044L63.1476 30.013L60.5431 31.279L59.0672 30.3177L62.9592 28.5129L63.072 24.2468L64.5331 25.1984ZM76.7154 33.1328L78.1586 34.0728L77.8389 37.6024L77.8984 37.6411L80.9974 35.9217L82.4406 36.8616L77.6517 39.3537L76.2486 41.508L74.9691 40.6747L76.3722 38.5203L76.7154 33.1328ZM86.9327 48.4666L90.9018 42.3725L94.9368 45.0005L94.2449 46.0628L91.4984 44.274L90.5526 45.7261L93.0313 47.3405L92.3394 48.4028L89.8607 46.7884L88.2211 49.3058L86.9327 48.4666ZM99.5918 56.7116L103.561 50.6175L104.849 51.4567L103.099 54.1437L103.18 54.196L107.123 52.9374L108.667 53.9432L104.628 55.199L104.725 60.0548L103.183 59.0509L103.146 55.4581L102.008 55.819L100.88 57.5508L99.5918 56.7116ZM113.127 65.5269L117.096 59.4328L118.384 60.272L115.107 65.3038L117.72 67.0054L117.028 68.0677L113.127 65.5269ZM132.048 69.171L133.321 70.0005L130.554 74.2498C130.298 74.6425 129.987 74.9263 129.622 75.1009C129.259 75.2768 128.871 75.3417 128.457 75.2956C128.043 75.2495 127.63 75.092 127.218 74.8233C126.851 74.5843 126.56 74.3027 126.344 73.9787C126.132 73.6539 126.025 73.3018 126.023 72.9223C126.023 72.5408 126.156 72.1483 126.421 71.7449L127.704 72.5802C127.603 72.7435 127.546 72.9027 127.533 73.0578C127.523 73.2122 127.552 73.3557 127.621 73.4883C127.693 73.6201 127.805 73.7352 127.956 73.8334C128.114 73.9367 128.27 73.9902 128.423 73.9938C128.58 73.9968 128.73 73.9505 128.874 73.855C129.018 73.7596 129.153 73.6147 129.28 73.4203L132.048 69.171ZM139.225 82.5251L137.845 81.6259L143.917 76.902L145.578 77.9834L143.71 85.4458L142.329 84.5465L143.864 78.8508L143.817 78.8198L139.225 82.5251ZM140.699 80.0735L143.96 82.1977L143.305 83.2034L140.044 81.0793L140.699 80.0735ZM152.135 90.9334L152.633 90.1687L158.453 87.8823L155.406 85.8977L156.098 84.8354L160.764 87.8743L160.266 88.639L154.443 90.9235L157.493 92.91L156.801 93.9723L152.135 90.9334ZM173.504 99.2102L172.2 98.3614C172.286 98.1772 172.335 97.9958 172.347 97.8171C172.36 97.6364 172.34 97.4619 172.285 97.2937C172.231 97.1256 172.145 96.9676 172.026 96.8198C171.91 96.6733 171.764 96.5432 171.59 96.4295C171.274 96.2241 170.948 96.1235 170.612 96.1277C170.277 96.13 169.949 96.2379 169.626 96.4515C169.304 96.6631 169.006 96.9802 168.731 97.4027C168.448 97.8372 168.275 98.2442 168.211 98.6237C168.149 99.0046 168.187 99.3466 168.323 99.6499C168.458 99.9531 168.68 100.205 168.988 100.405C169.16 100.518 169.335 100.599 169.511 100.649C169.69 100.7 169.865 100.719 170.037 100.707C170.21 100.693 170.376 100.647 170.534 100.569C170.694 100.492 170.842 100.382 170.977 100.239L172.277 101.094C172.061 101.352 171.801 101.566 171.497 101.738C171.196 101.91 170.866 102.024 170.507 102.081C170.151 102.137 169.778 102.124 169.389 102.04C169.004 101.955 168.615 101.786 168.224 101.531C167.681 101.177 167.275 100.738 167.007 100.213C166.74 99.6888 166.635 99.1131 166.691 98.4854C166.748 97.859 166.993 97.2145 167.425 96.5519C167.857 95.8873 168.351 95.4034 168.904 95.1C169.458 94.7966 170.028 94.6624 170.616 94.6975C171.204 94.7306 171.767 94.9216 172.302 95.2704C172.655 95.5004 172.95 95.7632 173.187 96.0588C173.426 96.3557 173.601 96.6755 173.711 97.0184C173.822 97.3594 173.862 97.7145 173.83 98.0839C173.801 98.4545 173.692 98.83 173.504 99.2102ZM179.606 108.825L183.575 102.731L187.681 105.406L186.989 106.468L184.171 104.632L183.225 106.085L185.832 107.782L185.14 108.845L182.534 107.147L181.586 108.602L184.416 110.445L183.724 111.507L179.606 108.825ZM199.221 115.727C199.274 115.555 199.298 115.389 199.295 115.229C199.294 115.067 199.263 114.911 199.205 114.763C199.149 114.614 199.066 114.473 198.954 114.341C198.844 114.21 198.706 114.091 198.539 113.982C198.228 113.779 197.904 113.678 197.567 113.679C197.232 113.681 196.903 113.788 196.579 113.998C196.257 114.206 195.958 114.523 195.681 114.947C195.405 115.372 195.234 115.775 195.169 116.156C195.105 116.538 195.139 116.884 195.273 117.194C195.408 117.503 195.637 117.762 195.958 117.971C196.25 118.161 196.532 118.272 196.806 118.303C197.083 118.333 197.338 118.289 197.571 118.17C197.806 118.052 198.008 117.863 198.177 117.603L198.414 117.812L196.843 116.789L197.475 115.819L200.025 117.479L199.525 118.247C199.176 118.783 198.763 119.169 198.286 119.407C197.811 119.643 197.307 119.735 196.774 119.685C196.243 119.633 195.722 119.44 195.21 119.107C194.639 118.735 194.219 118.282 193.95 117.748C193.683 117.213 193.581 116.633 193.642 116.009C193.707 115.385 193.949 114.751 194.367 114.108C194.689 113.614 195.047 113.221 195.442 112.927C195.84 112.632 196.257 112.435 196.693 112.334C197.128 112.234 197.564 112.225 198.001 112.309C198.438 112.393 198.858 112.566 199.261 112.829C199.606 113.054 199.894 113.313 200.126 113.608C200.359 113.901 200.531 114.214 200.642 114.547C200.756 114.88 200.804 115.221 200.786 115.568C200.77 115.914 200.685 116.251 200.53 116.58L199.221 115.727ZM206.626 126.424L210.595 120.33L214.701 123.004L214.01 124.066L211.192 122.231L210.246 123.683L212.853 125.381L212.161 126.443L209.554 124.745L208.606 126.201L211.436 128.044L210.744 129.106L206.626 126.424ZM227.099 135.418C226.666 136.083 226.172 136.566 225.616 136.868C225.063 137.172 224.49 137.305 223.897 137.27C223.308 137.233 222.744 137.04 222.206 136.69C221.665 136.337 221.259 135.898 220.989 135.371C220.718 134.845 220.61 134.267 220.664 133.638C220.718 133.009 220.96 132.364 221.392 131.701C221.825 131.036 222.318 130.553 222.871 130.249C223.425 129.946 223.996 129.812 224.586 129.849C225.176 129.883 225.743 130.077 226.284 130.429C226.822 130.779 227.226 131.218 227.496 131.744C227.77 132.27 227.879 132.847 227.826 133.476C227.774 134.106 227.532 134.754 227.099 135.418ZM225.793 134.567C226.073 134.137 226.245 133.732 226.309 133.352C226.374 132.974 226.341 132.633 226.208 132.329C226.075 132.025 225.853 131.772 225.542 131.569C225.23 131.366 224.909 131.265 224.577 131.267C224.246 131.269 223.919 131.375 223.598 131.587C223.278 131.8 222.978 132.121 222.698 132.552C222.418 132.982 222.245 133.387 222.179 133.765C222.116 134.145 222.15 134.486 222.283 134.79C222.415 135.094 222.637 135.348 222.949 135.55C223.26 135.753 223.582 135.854 223.913 135.852C224.245 135.851 224.57 135.743 224.89 135.531C225.211 135.319 225.512 134.998 225.793 134.567ZM5.362 21.5939L9.33114 15.4998L13.4375 18.1743L12.7457 19.2366L9.92771 17.4013L8.98194 18.8534L11.5886 20.5511L10.8967 21.6134L8.29005 19.9157L7.34234 21.3708L10.1722 23.2139L9.4803 24.2762L5.362 21.5939ZM20.4106 31.3952L18.2503 29.9881L22.2194 23.894L24.3976 25.3126C25.0106 25.7119 25.4588 26.1776 25.7423 26.7097C26.027 27.2398 26.1405 27.8096 26.0827 28.4189C26.0268 29.0295 25.7928 29.6512 25.3807 30.2841C24.9672 30.9189 24.4919 31.3862 23.9547 31.6862C23.4194 31.9874 22.8492 32.1147 22.2439 32.0679C21.6406 32.0225 21.0295 31.7983 20.4106 31.3952ZM20.2578 29.7233L21.0761 30.2563C21.4569 30.5044 21.8213 30.6456 22.169 30.6799C22.52 30.7136 22.854 30.6303 23.171 30.4299C23.4912 30.2288 23.7993 29.9011 24.0952 29.4468C24.3885 28.9965 24.5617 28.5852 24.6148 28.213C24.6699 27.8421 24.6115 27.5045 24.4395 27.2004C24.2675 26.8962 23.991 26.6201 23.6101 26.372L22.7889 25.8371L20.2578 29.7233ZM32.1042 39.0112L36.0733 32.9171L38.4776 34.4831C38.9379 34.7828 39.277 35.121 39.4951 35.4975C39.7165 35.8734 39.8149 36.2666 39.7905 36.6773C39.7692 37.0873 39.6275 37.4936 39.3652 37.8963C39.1016 38.301 38.7876 38.5923 38.4231 38.7702C38.0599 38.9461 37.6622 39.0036 37.2302 38.9426C36.8001 38.8828 36.351 38.7005 35.8828 38.3956L34.273 37.3471L34.9474 36.3115L36.3489 37.2244C36.5949 37.3846 36.8212 37.4839 37.0278 37.5224C37.2344 37.5609 37.4213 37.5386 37.5885 37.4554C37.7577 37.3734 37.9076 37.2323 38.0381 37.0319C38.1698 36.8296 38.2403 36.6325 38.2494 36.4407C38.2605 36.2501 38.207 36.0655 38.0888 35.8869C37.974 35.7075 37.7926 35.5371 37.5446 35.3756L36.6757 34.8097L33.3926 39.8504L32.1042 39.0112ZM37.2015 38.3814L36.9098 42.1412L35.4875 41.2148L35.8119 37.4764L37.2015 38.3814ZM54.4271 44.8711L50.458 50.9652L49.3451 50.2404L49.1919 44.6779L49.1473 44.6489L46.6491 48.4845L45.3607 47.6453L49.3298 41.5512L50.4606 42.2876L50.5948 47.8335L50.6484 47.8684L53.1446 44.0358L54.4271 44.8711ZM59.2146 56.6684L59.7126 55.9037L65.5329 53.6173L62.4859 51.6327L63.1778 50.5704L67.8436 53.6093L67.3455 54.374L61.5222 56.6585L64.5723 58.645L63.8804 59.7073L59.2146 56.6684ZM76.2386 59.0771L77.6818 60.017L77.3621 63.5466L77.4216 63.5854L80.5206 61.8659L81.9638 62.8059L77.175 65.2979L75.7718 67.4523L74.4923 66.6189L75.8954 64.4645L76.2386 59.0771ZM88.3953 75.674L92.3644 69.5799L93.6529 70.4191L90.3756 75.4509L92.9882 77.1525L92.2963 78.2148L88.3953 75.674ZM100.907 83.8231L104.876 77.7289L107.281 79.2949C107.743 79.5959 108.079 79.9407 108.289 80.3291C108.501 80.7156 108.591 81.1201 108.559 81.5427C108.53 81.9646 108.383 82.3778 108.12 82.7825C107.856 83.1872 107.536 83.4875 107.16 83.6832C106.784 83.879 106.374 83.9553 105.93 83.9121C105.489 83.8702 105.034 83.6968 104.566 83.3919L103.033 82.3938L103.706 81.3612L105.03 82.2237C105.278 82.3852 105.51 82.4756 105.726 82.495C105.946 82.5136 106.145 82.4724 106.324 82.3713C106.506 82.2696 106.662 82.1185 106.793 81.9182C106.924 81.7158 106.999 81.5128 107.016 81.309C107.036 81.1046 106.992 80.9078 106.883 80.7185C106.776 80.5272 106.598 80.3502 106.348 80.1874L105.479 79.6215L102.196 84.6623L100.907 83.8231ZM114.09 92.4092L118.059 86.315L122.094 88.943L121.402 90.0054L118.656 88.2165L117.71 89.6686L120.189 91.283L119.497 92.3454L117.018 90.731L115.378 93.2484L114.09 92.4092ZM133.158 96.1492L134.432 96.9787L131.664 101.228C131.409 101.621 131.098 101.904 130.733 102.079C130.37 102.255 129.981 102.32 129.568 102.274C129.154 102.228 128.741 102.07 128.329 101.801C127.962 101.562 127.67 101.281 127.455 100.957C127.242 100.632 127.136 100.28 127.134 99.9005C127.134 99.519 127.267 99.1265 127.532 98.7231L128.815 99.5584C128.714 99.7217 128.657 99.8809 128.644 100.036C128.633 100.19 128.663 100.334 128.732 100.466C128.804 100.598 128.916 100.713 129.066 100.812C129.225 100.915 129.381 100.968 129.534 100.972C129.69 100.975 129.841 100.929 129.985 100.833C130.129 100.738 130.264 100.593 130.391 100.398L133.158 96.1492ZM139.286 108.819L143.255 102.725L144.543 103.564L142.793 106.251L142.873 106.304L146.817 105.045L148.361 106.051L144.322 107.307L144.419 112.162L142.877 111.158L142.84 107.566L141.702 107.927L140.574 109.658L139.286 108.819ZM159.547 116.142C159.6 115.97 159.625 115.804 159.622 115.644C159.62 115.482 159.59 115.326 159.531 115.178C159.476 115.029 159.392 114.888 159.28 114.756C159.171 114.625 159.032 114.506 158.866 114.397C158.554 114.194 158.23 114.093 157.893 114.094C157.559 114.097 157.229 114.203 156.906 114.413C156.584 114.622 156.284 114.938 156.008 115.363C155.731 115.787 155.561 116.19 155.496 116.572C155.431 116.953 155.466 117.299 155.6 117.61C155.735 117.918 155.963 118.177 156.285 118.386C156.576 118.576 156.859 118.687 157.132 118.718C157.409 118.749 157.664 118.704 157.897 118.585C158.132 118.467 158.334 118.278 158.504 118.018L158.74 118.227L157.169 117.204L157.801 116.234L160.351 117.895L159.851 118.662C159.502 119.198 159.089 119.585 158.613 119.822C158.137 120.058 157.633 120.15 157.101 120.1C156.57 120.048 156.048 119.855 155.536 119.522C154.965 119.15 154.545 118.697 154.277 118.164C154.01 117.628 153.907 117.048 153.969 116.424C154.034 115.8 154.275 115.166 154.694 114.524C155.016 114.03 155.374 113.636 155.769 113.342C156.167 113.047 156.584 112.85 157.019 112.749C157.455 112.649 157.891 112.641 158.328 112.725C158.765 112.809 159.185 112.982 159.587 113.244C159.932 113.469 160.221 113.729 160.453 114.024C160.686 114.317 160.858 114.629 160.969 114.962C161.082 115.295 161.13 115.636 161.113 115.984C161.097 116.329 161.011 116.666 160.857 116.995L159.547 116.142ZM175.301 123.597L176.575 124.427L173.807 128.676C173.551 129.069 173.241 129.352 172.875 129.527C172.512 129.703 172.124 129.768 171.71 129.722C171.297 129.675 170.884 129.518 170.471 129.249C170.104 129.01 169.813 128.729 169.597 128.405C169.385 128.08 169.278 127.728 169.277 127.348C169.277 126.967 169.409 126.574 169.675 126.171L170.957 127.006C170.857 127.169 170.8 127.329 170.786 127.484C170.776 127.638 170.805 127.782 170.874 127.914C170.947 128.046 171.058 128.161 171.209 128.259C171.368 128.363 171.524 128.416 171.677 128.42C171.833 128.423 171.983 128.376 172.127 128.281C172.271 128.186 172.407 128.041 172.533 127.846L175.301 123.597ZM181.428 136.267L185.397 130.173L189.504 132.847L188.812 133.91L185.994 132.074L185.048 133.526L187.655 135.224L186.963 136.287L184.356 134.589L183.409 136.044L186.238 137.887L185.547 138.949L181.428 136.267ZM-0.511099 37.8404C-0.378567 37.5848 -0.35928 37.3318 -0.453236 37.0813C-0.547192 36.8308 -0.748903 36.6048 -1.05837 36.4032C-1.26865 36.2663 -1.46558 36.1804 -1.64915 36.1456C-1.83144 36.1088 -1.99486 36.1168 -2.13941 36.1696C-2.28198 36.2236 -2.3959 36.3161 -2.48118 36.447C-2.55621 36.5536 -2.59541 36.6636 -2.59879 36.7773C-2.60019 36.8922 -2.57563 37.0085 -2.52512 37.1262C-2.47332 37.2418 -2.40311 37.3596 -2.31449 37.4795C-2.22458 37.5974 -2.12286 37.7145 -2.00933 37.8308L-1.54709 38.3183C-1.32002 38.551 -1.1277 38.7892 -0.970123 39.0331C-0.812543 39.277 -0.699578 39.5244 -0.631228 39.7751C-0.562878 40.0259 -0.548024 40.2785 -0.586667 40.5331C-0.623325 40.7889 -0.723354 41.0444 -0.886751 41.2996C-1.13164 41.6713 -1.43746 41.9326 -1.80422 42.0836C-2.1677 42.234 -2.5751 42.2695 -3.0264 42.1903C-3.47443 42.1104 -3.94642 41.9089 -4.44236 41.5859C-4.93434 41.2655 -5.31373 40.911 -5.58055 40.5225C-5.84538 40.1353 -5.98371 39.7274 -5.99552 39.2987C-6.00406 38.8694 -5.87052 38.4323 -5.5949 37.9874L-4.3481 38.7994C-4.46729 39.0128 -4.51989 39.2215 -4.50588 39.4256C-4.4886 39.629 -4.41529 39.8222 -4.28594 40.0053C-4.15331 40.1878 -3.97591 40.3514 -3.75372 40.4961C-3.53551 40.6382 -3.32539 40.7298 -3.12336 40.771C-2.91934 40.8135 -2.73588 40.8073 -2.57296 40.7523C-2.41005 40.6974 -2.28078 40.5965 -2.18517 40.4497C-2.09602 40.3128 -2.06175 40.1713 -2.08236 40.0251C-2.10098 39.8802 -2.16634 39.7246 -2.27844 39.5583C-2.38855 39.3934 -2.53726 39.2118 -2.72455 39.0135L-3.27959 38.4147C-3.71199 37.9551 -3.9904 37.4954 -4.11484 37.0358C-4.23927 36.5762 -4.15384 36.1219 -3.85857 35.6728C-3.62023 35.3026 -3.31208 35.0442 -2.93411 34.8976C-2.55415 34.7524 -2.13922 34.7161 -1.68929 34.7887C-1.23937 34.8614 -0.79223 35.0425 -0.347866 35.3319C0.104433 35.6265 0.448813 35.9609 0.685274 36.3353C0.923719 36.711 1.04737 37.0981 1.05624 37.4966C1.0651 37.895 0.954288 38.2777 0.723795 38.6446L-0.511099 37.8404ZM6.60366 48.6574L10.5728 42.5632L12.9771 44.1292C13.4374 44.4289 13.7765 44.7671 13.9946 45.1436C14.216 45.5195 14.3144 45.9128 14.29 46.3234C14.2687 46.7334 14.127 47.1397 13.8647 47.5424C13.6011 47.9471 13.2871 48.2384 12.9226 48.4163C12.5594 48.5923 12.1617 48.6497 11.7297 48.5887C11.2996 48.5289 10.8505 48.3466 10.3823 48.0417L8.77246 46.9932L9.4469 45.9577L10.8484 46.8705C11.0944 47.0307 11.3207 47.1301 11.5273 47.1686C11.7339 47.2071 11.9208 47.1847 12.088 47.1015C12.2572 47.0196 12.4071 46.8784 12.5376 46.6781C12.6693 46.4757 12.7398 46.2786 12.7489 46.0868C12.76 45.8962 12.7065 45.7116 12.5883 45.533C12.4735 45.3536 12.2921 45.1832 12.0441 45.0217L11.1752 44.4558L7.89212 49.4965L6.60366 48.6574ZM11.701 48.0276L11.4093 51.7873L9.98697 50.8609L10.3114 47.1225L11.701 48.0276ZM27.5935 53.6489L28.882 54.4881L26.3044 58.4457C26.0149 58.8901 25.6556 59.2098 25.2262 59.4048C24.7989 59.6011 24.3351 59.6691 23.8347 59.6088C23.3356 59.5465 22.8342 59.3513 22.3303 59.0231C21.8244 58.6937 21.4421 58.3133 21.1834 57.882C20.926 57.4488 20.8006 56.997 20.8074 56.5268C20.8142 56.0566 20.9623 55.5993 21.2517 55.1549L23.8293 51.1973L25.1178 52.0365L22.6119 55.884C22.4607 56.1161 22.3769 56.3554 22.3605 56.6018C22.3461 56.8495 22.3985 57.0856 22.5178 57.3102C22.6371 57.5349 22.8207 57.7279 23.0687 57.8894C23.3187 58.0522 23.5695 58.1421 23.8211 58.1591C24.0748 58.1774 24.311 58.1292 24.5298 58.0146C24.7505 57.9013 24.9364 57.7286 25.0876 57.4965L27.5935 53.6489ZM34.7808 67.0093L33.4001 66.1101L39.4731 61.3862L41.1335 62.4676L39.2651 69.93L37.8844 69.0307L39.4201 63.335L39.3725 63.304L34.7808 67.0093ZM36.2547 64.5577L39.516 66.6819L38.8609 67.6876L35.5996 65.5635L36.2547 64.5577ZM52.9334 70.153L52.8096 73.0304L52.8572 73.0614L55.4449 71.7887L56.9 72.7364L53.0556 74.5722L52.9725 78.8577L51.4906 77.8925L51.5955 74.9986L51.5479 74.9676L48.9434 76.2335L47.4675 75.2723L51.3595 73.4675L51.4724 69.2014L52.9334 70.153ZM68.2307 82.9217C68.2834 82.7498 68.3082 82.5837 68.3052 82.4235C68.3034 82.2614 68.2732 82.1061 68.2145 81.9576C68.1591 81.8085 68.0755 81.6679 67.9637 81.5358C67.854 81.405 67.7158 81.2853 67.5492 81.1768C67.2377 80.9739 66.9136 80.873 66.5767 80.874C66.2419 80.8763 65.9127 80.9825 65.5893 81.1928C65.2671 81.4012 64.9678 81.7176 64.6913 82.1421C64.4148 82.5666 64.2441 82.9697 64.1793 83.3512C64.1144 83.7328 64.149 84.0788 64.283 84.3893C64.4182 84.6977 64.6466 84.9566 64.9679 85.166C65.2596 85.3559 65.5421 85.4665 65.8156 85.4977C66.0924 85.5282 66.3473 85.4838 66.5805 85.3644C66.8156 85.2463 67.0178 85.0573 67.1871 84.7975L67.4237 85.0067L65.8526 83.9834L66.4844 83.0133L69.0345 84.6742L68.5345 85.442C68.1857 85.9776 67.7728 86.3642 67.296 86.6017C66.8205 86.8373 66.3165 86.93 65.7841 86.8799C65.253 86.8278 64.7315 86.6351 64.2197 86.3018C63.6484 85.9296 63.2285 85.4768 62.9602 84.9432C62.6931 84.4076 62.5904 83.8279 62.652 83.2041C62.7169 82.5796 62.9586 81.946 63.3772 81.3032C63.6989 80.8093 64.0572 80.4154 64.452 80.1216C64.85 79.8271 65.2669 79.6296 65.7024 79.529C66.138 79.4285 66.5743 79.4202 67.0112 79.5042C67.4481 79.5881 67.8679 79.7613 68.2706 80.0235C68.6158 80.2484 68.9042 80.5083 69.1359 80.8032C69.3688 81.0962 69.541 81.4089 69.6522 81.7413C69.7654 82.075 69.8134 82.4156 69.7961 82.7631C69.7801 83.1087 69.6948 83.4458 69.54 83.7745L68.2307 82.9217ZM83.5923 93.1599L82.289 92.311C82.375 92.1269 82.4239 91.9455 82.4358 91.7668C82.449 91.586 82.4284 91.4116 82.3741 91.2434C82.3197 91.0752 82.2333 90.9173 82.1149 90.7695C81.9984 90.623 81.8529 90.4929 81.6783 90.3792C81.3629 90.1737 81.0371 90.0732 80.7009 90.0774C80.3661 90.0797 80.0373 90.1876 79.7145 90.4012C79.3931 90.6128 79.0947 90.9299 78.8195 91.3524C78.5366 91.7869 78.3633 92.1939 78.2997 92.5734C78.2381 92.9543 78.2753 93.2963 78.4112 93.5995C78.5471 93.9028 78.7688 94.1545 79.0762 94.3548C79.2488 94.4672 79.4234 94.5484 79.5999 94.5984C79.7784 94.6496 79.9536 94.6691 80.1255 94.6568C80.2987 94.6424 80.4643 94.5963 80.6224 94.5185C80.7825 94.4419 80.9304 94.332 81.0661 94.1887L82.3655 95.0435C82.1496 95.3013 81.8896 95.5161 81.5854 95.6881C81.2846 95.8595 80.9545 95.9736 80.5953 96.0307C80.2393 96.087 79.8669 96.0733 79.4779 95.9895C79.0922 95.9049 78.7039 95.7354 78.3131 95.4809C77.7696 95.1269 77.3637 94.6873 77.0954 94.1623C76.8291 93.6385 76.7238 93.0628 76.7794 92.4351C76.8371 91.8087 77.0817 91.1642 77.5132 90.5016C77.946 89.837 78.4393 89.3531 78.9928 89.0497C79.5464 88.7463 80.1169 88.6121 80.7043 88.6472C81.293 88.6803 81.8552 88.8713 82.3908 89.2201C82.7439 89.4501 83.0389 89.7129 83.2759 90.0085C83.5148 90.3053 83.6893 90.6252 83.7993 90.9681C83.9107 91.309 83.9506 91.6642 83.9191 92.0336C83.8896 92.4042 83.7806 92.7797 83.5923 93.1599ZM91.3669 95.185L92.8101 96.1249L92.4904 99.6545L92.5499 99.6933L95.6489 97.9738L97.0921 98.9138L92.3033 101.406L90.9001 103.56L89.6206 102.727L91.0237 100.572L91.3669 95.185ZM101.584 110.519L105.553 104.425L107.958 105.991C108.42 106.292 108.756 106.636 108.966 107.025C109.178 107.411 109.268 107.816 109.236 108.238C109.207 108.66 109.06 109.074 108.797 109.478C108.533 109.883 108.213 110.183 107.837 110.379C107.461 110.575 107.051 110.651 106.607 110.608C106.166 110.566 105.711 110.393 105.243 110.088L103.71 109.09L104.383 108.057L105.707 108.919C105.955 109.081 106.187 109.171 106.403 109.191C106.623 109.209 106.822 109.168 107.001 109.067C107.183 108.965 107.339 108.814 107.47 108.614C107.601 108.412 107.676 108.209 107.693 108.005C107.713 107.8 107.669 107.603 107.56 107.414C107.453 107.223 107.275 107.046 107.025 106.883L106.156 106.317L102.873 111.358L101.584 110.519ZM118.447 118.484L119.542 119.198L119.631 120.264L119.762 121.248L119.949 123.192L118.747 122.409L118.607 121.089L118.58 120.343L118.447 118.484ZM122.352 119.705C121.919 120.37 121.425 120.853 120.869 121.155C120.316 121.459 119.742 121.592 119.15 121.557C118.56 121.52 117.997 121.327 117.459 120.977C116.918 120.624 116.512 120.185 116.242 119.658C115.971 119.132 115.863 118.554 115.917 117.925C115.97 117.296 116.213 116.651 116.644 115.988C117.077 115.324 117.571 114.84 118.124 114.536C118.678 114.233 119.249 114.099 119.839 114.136C120.429 114.17 120.995 114.364 121.537 114.716C122.075 115.066 122.479 115.505 122.749 116.031C123.022 116.557 123.132 117.134 123.079 117.763C123.027 118.393 122.785 119.041 122.352 119.705ZM121.045 118.854C121.326 118.424 121.498 118.019 121.561 117.639C121.627 117.261 121.593 116.92 121.461 116.616C121.328 116.312 121.106 116.059 120.795 115.856C120.483 115.653 120.162 115.552 119.83 115.554C119.499 115.556 119.172 115.662 118.851 115.874C118.531 116.087 118.231 116.408 117.951 116.839C117.67 117.269 117.497 117.674 117.432 118.052C117.368 118.432 117.403 118.773 117.535 119.077C117.668 119.381 117.89 119.635 118.202 119.837C118.513 120.04 118.835 120.141 119.166 120.139C119.498 120.138 119.823 120.03 120.143 119.818C120.464 119.606 120.765 119.285 121.045 118.854ZM132.397 121.908L128.428 128.003L127.14 127.163L131.109 121.069L132.397 121.908ZM-12.5178 56.2751C-12.3852 56.0196 -12.366 55.7665 -12.4599 55.5161C-12.5539 55.2656 -12.7556 55.0395 -13.065 54.838C-13.2753 54.701 -13.4723 54.6151 -13.6558 54.5803C-13.8381 54.5436 -14.0015 54.5515 -14.1461 54.6043C-14.2887 54.6584 -14.4026 54.7509 -14.4878 54.8818C-14.5629 54.9883 -14.6021 55.0984 -14.6055 55.212C-14.6069 55.327 -14.5823 55.4432 -14.5318 55.5609C-14.48 55.6766 -14.4098 55.7943 -14.3212 55.9142C-14.2313 56.0321 -14.1295 56.1492 -14.016 56.2655L-13.5538 56.7531C-13.3267 56.9857 -13.1344 57.224 -12.9768 57.4679C-12.8192 57.7118 -12.7063 57.9591 -12.6379 58.2099C-12.5696 58.4606 -12.5547 58.7133 -12.5933 58.9678C-12.63 59.2236 -12.73 59.4792 -12.8934 59.7344C-13.1383 60.106 -13.4441 60.3674 -13.8109 60.5184C-14.1744 60.6687 -14.5818 60.7043 -15.0331 60.625C-15.4811 60.5451 -15.9531 60.3437 -16.449 60.0207C-16.941 59.7002 -17.3204 59.3458 -17.5872 58.9573C-17.8521 58.5701 -17.9904 58.1621 -18.0022 57.7335C-18.0107 57.3041 -17.8772 56.867 -17.6016 56.4221L-16.3548 57.2342C-16.474 57.4475 -16.5266 57.6563 -16.5126 57.8603C-16.4953 58.0637 -16.422 58.257 -16.2926 58.4401C-16.16 58.6225 -15.9826 58.7861 -15.7604 58.9308C-15.5422 59.0729 -15.3321 59.1646 -15.13 59.2058C-14.926 59.2482 -14.7426 59.242 -14.5796 59.1871C-14.4167 59.1321 -14.2875 59.0313 -14.1918 58.8845C-14.1027 58.7476 -14.0684 58.606 -14.089 58.4598C-14.1077 58.3149 -14.173 58.1593 -14.2851 57.9931C-14.3952 57.8281 -14.5439 57.6465 -14.7312 57.4483L-15.2863 56.8494C-15.7187 56.3898 -15.9971 55.9302 -16.1215 55.4706C-16.2459 55.0109 -16.1605 54.5566 -15.8652 54.1076C-15.6269 53.7373 -15.3188 53.4789 -14.9408 53.3324C-14.5608 53.1871 -14.1459 53.1508 -13.696 53.2235C-13.246 53.2962 -12.7989 53.4772 -12.3545 53.7666C-11.9022 54.0612 -11.5579 54.3957 -11.3214 54.7701C-11.083 55.1457 -10.9593 55.5328 -10.9504 55.9313C-10.9416 56.3298 -11.0524 56.7125 -11.2829 57.0794L-12.5178 56.2751ZM-2.35785 61.9091L-1.66596 60.8468L3.33908 64.1066L2.64719 65.1689L0.781458 63.9538L-2.4958 68.9856L-3.76938 68.1561L-0.49212 63.1243L-2.35785 61.9091ZM17.0181 73.0159L13.049 79.11L11.9361 78.3852L11.783 72.8228L11.7383 72.7937L9.24016 76.6293L7.9517 75.7901L11.9209 69.696L13.0516 70.4325L13.1859 75.9783L13.2394 76.0132L15.7356 72.1806L17.0181 73.0159ZM26.9412 79.4788L25.3985 85.0683L25.455 85.1051L29.9466 81.4363L31.3749 82.3666L25.3049 87.0924L23.6445 86.011L25.5099 78.5466L26.9412 79.4788ZM44.9632 91.2167L40.9941 97.3108L39.8812 96.586L39.728 91.0236L39.6834 90.9945L37.1852 94.8301L35.8968 93.9909L39.8659 87.8968L40.9967 88.6333L41.1309 94.1792L41.1845 94.214L43.6807 90.3814L44.9632 91.2167ZM52.8613 97.8737L53.5532 96.8114L58.5582 100.071L57.8663 101.134L56.0006 99.9184L52.7233 104.95L51.4498 104.121L54.727 99.0889L52.8613 97.8737ZM69.3044 109.566C69.4369 109.311 69.4562 109.058 69.3623 108.807C69.2683 108.557 69.0666 108.331 68.7571 108.129C68.5469 107.992 68.3499 107.906 68.1664 107.872C67.9841 107.835 67.8207 107.843 67.6761 107.896C67.5335 107.95 67.4196 108.042 67.3343 108.173C67.2593 108.28 67.2201 108.39 67.2167 108.503C67.2153 108.618 67.2399 108.735 67.2904 108.852C67.3422 108.968 67.4124 109.086 67.501 109.206C67.5909 109.323 67.6926 109.441 67.8062 109.557L68.2684 110.044C68.4955 110.277 68.6878 110.515 68.8454 110.759C69.003 111.003 69.1159 111.25 69.1843 111.501C69.2526 111.752 69.2675 112.005 69.2288 112.259C69.1922 112.515 69.0922 112.77 68.9288 113.026C68.6839 113.397 68.3781 113.659 68.0113 113.81C67.6478 113.96 67.2404 113.996 66.7891 113.916C66.3411 113.836 65.8691 113.635 65.3731 113.312C64.8812 112.992 64.5018 112.637 64.235 112.249C63.9701 111.861 63.8318 111.453 63.82 111.025C63.8115 110.595 63.945 110.158 64.2206 109.713L65.4674 110.526C65.3482 110.739 65.2956 110.948 65.3096 111.152C65.3269 111.355 65.4002 111.548 65.5296 111.731C65.6622 111.914 65.8396 112.077 66.0618 112.222C66.28 112.364 66.4901 112.456 66.6922 112.497C66.8962 112.54 67.0796 112.533 67.2425 112.478C67.4055 112.423 67.5347 112.323 67.6303 112.176C67.7195 112.039 67.7538 111.897 67.7332 111.751C67.7145 111.606 67.6492 111.451 67.5371 111.284C67.427 111.119 67.2783 110.938 67.091 110.74L66.5359 110.141C66.1035 109.681 65.8251 109.222 65.7007 108.762C65.5762 108.302 65.6617 107.848 65.9569 107.399C66.1953 107.029 66.5034 106.77 66.8814 106.624C67.2614 106.478 67.6763 106.442 68.1262 106.515C68.5761 106.587 69.0233 106.769 69.4676 107.058C69.9199 107.353 70.2643 107.687 70.5008 108.061C70.7392 108.437 70.8629 108.824 70.8717 109.223C70.8806 109.621 70.7698 110.004 70.5393 110.371L69.3044 109.566ZM77.4696 121.068L76.0889 120.168L82.1618 115.444L83.8222 116.526L81.9539 123.988L80.5732 123.089L82.1088 117.393L82.0612 117.362L77.4696 121.068ZM78.9434 118.616L82.2047 120.74L81.5497 121.746L78.2884 119.622L78.9434 118.616ZM93.4901 124.336L94.1819 123.273L99.187 126.533L98.4951 127.595L96.6294 126.38L93.3521 131.412L92.0785 130.582L95.3558 125.551L93.4901 124.336ZM103.8 138.217L107.769 132.122L110.173 133.688C110.635 133.989 110.972 134.334 111.182 134.723C111.394 135.109 111.483 135.514 111.451 135.936C111.422 136.358 111.276 136.771 111.012 137.176C110.749 137.581 110.429 137.881 110.053 138.077C109.677 138.272 109.267 138.349 108.823 138.306C108.381 138.264 107.926 138.09 107.458 137.785L105.926 136.787L106.598 135.755L107.922 136.617C108.17 136.779 108.402 136.869 108.619 136.888C108.838 136.907 109.037 136.866 109.216 136.765C109.398 136.663 109.555 136.512 109.685 136.312C109.817 136.109 109.891 135.906 109.908 135.702C109.928 135.498 109.884 135.301 109.776 135.112C109.669 134.921 109.49 134.744 109.24 134.581L108.371 134.015L105.088 139.056L103.8 138.217ZM116.982 146.803L120.952 140.708L122.24 141.548L118.963 146.579L121.575 148.281L120.884 149.343L116.982 146.803ZM-30.658 76.8981L-26.6889 70.804L-24.2845 72.37C-23.8243 72.6697 -23.4851 73.0079 -23.267 73.3844C-23.0457 73.7603 -22.9472 74.1535 -22.9717 74.5642C-22.9929 74.9742 -23.1347 75.3805 -23.397 75.7832C-23.6606 76.1879 -23.9746 76.4792 -24.3391 76.6571C-24.7023 76.833 -25.0999 76.8905 -25.532 76.8294C-25.9621 76.7697 -26.4112 76.5874 -26.8794 76.2824L-28.4892 75.234L-27.8148 74.1984L-26.4132 75.1113C-26.1673 75.2715 -25.941 75.3708 -25.7344 75.4093C-25.5278 75.4478 -25.3409 75.4255 -25.1737 75.3422C-25.0045 75.2603 -24.8546 75.1192 -24.7241 74.9188C-24.5923 74.7165 -24.5219 74.5194 -24.5128 74.3276C-24.5017 74.137 -24.5552 73.9524 -24.6733 73.7738C-24.7882 73.5944 -24.9696 73.424 -25.2176 73.2625L-26.0865 72.6966L-29.3696 77.7373L-30.658 76.8981ZM-25.5607 76.2683L-25.8523 80.0281L-27.2747 79.1017L-26.9503 75.3632L-25.5607 76.2683ZM-14.3563 80.3492L-13.6645 79.2869L-8.65941 82.5467L-9.3513 83.609L-11.217 82.3939L-14.4943 87.4257L-15.7679 86.5962L-12.4906 81.5644L-14.3563 80.3492ZM-2.99638 94.9143L-4.37708 94.0151L1.69585 89.2912L3.35626 90.3726L1.48792 97.835L0.107222 96.9357L1.64285 91.24L1.59524 91.209L-2.99638 94.9143ZM-1.52254 92.4627L1.73878 94.5869L1.08371 95.5926L-2.1776 93.4685L-1.52254 92.4627ZM12.1393 104.772L9.97894 103.365L13.9481 97.2711L16.1263 98.6898C16.7392 99.089 17.1875 99.5547 17.4709 100.087C17.7557 100.617 17.8691 101.187 17.8113 101.796C17.7555 102.407 17.5215 103.028 17.1093 103.661C16.6959 104.296 16.2205 104.763 15.6833 105.063C15.1481 105.365 14.5779 105.492 13.9726 105.445C13.3693 105.4 12.7582 105.175 12.1393 104.772ZM11.9864 103.1L12.8047 103.633C13.1856 103.882 13.5499 104.023 13.8976 104.057C14.2487 104.091 14.5826 104.007 14.8996 103.807C15.2199 103.606 15.528 103.278 15.8238 102.824C16.1171 102.374 16.2903 101.962 16.3435 101.59C16.3986 101.219 16.3402 100.882 16.1681 100.578C15.9961 100.273 15.7197 99.9972 15.3388 99.7492L14.5175 99.2143L11.9864 103.1ZM30.5599 110.896C30.6126 110.724 30.6374 110.558 30.6344 110.398C30.6326 110.236 30.6024 110.08 30.5437 109.932C30.4882 109.783 30.4046 109.642 30.2929 109.51C30.1832 109.379 30.045 109.26 29.8783 109.151C29.5669 108.948 29.2427 108.847 28.9059 108.848C28.571 108.851 28.2419 108.957 27.9184 109.167C27.5963 109.375 27.297 109.692 27.0205 110.116C26.744 110.541 26.5733 110.944 26.5084 111.326C26.4436 111.707 26.4781 112.053 26.6121 112.364C26.7474 112.672 26.9757 112.931 27.2971 113.14C27.5887 113.33 27.8713 113.441 28.1448 113.472C28.4216 113.502 28.6765 113.458 28.9097 113.339C29.1448 113.221 29.347 113.032 29.5162 112.772L29.7529 112.981L28.1818 111.958L28.8136 110.988L31.3637 112.649L30.8637 113.416C30.5148 113.952 30.102 114.338 29.6252 114.576C29.1497 114.812 28.6457 114.904 28.1133 114.854C27.5822 114.802 27.0607 114.609 26.5489 114.276C25.9776 113.904 25.5577 113.451 25.2893 112.917C25.0223 112.382 24.9195 111.802 24.9811 111.178C25.046 110.554 25.2878 109.92 25.7064 109.277C26.0281 108.784 26.3864 108.39 26.7811 108.096C27.1792 107.801 27.596 107.604 28.0316 107.503C28.4672 107.403 28.9035 107.394 29.3404 107.478C29.7773 107.562 30.1971 107.736 30.5998 107.998C30.945 108.223 31.2334 108.483 31.4651 108.778C31.698 109.071 31.8701 109.383 31.9814 109.716C32.0946 110.049 32.1426 110.39 32.1253 110.737C32.1093 111.083 32.0239 111.42 31.8692 111.749L30.5599 110.896ZM37.9649 121.593L41.9341 115.499L46.0405 118.173L45.3486 119.235L42.5306 117.4L41.5849 118.852L44.1915 120.55L43.4996 121.612L40.893 119.914L39.9453 121.37L42.7751 123.213L42.0832 124.275L37.9649 121.593ZM52.225 130.88L54.4504 123.651L55.8579 124.567L54.1088 129.459L54.1594 129.492L58.0301 125.982L59.2352 126.767L57.5815 131.733L57.635 131.768L61.4075 128.182L62.815 129.098L57.1021 134.057L55.8463 133.239L57.2809 128.499L57.2333 128.468L53.4807 131.698L52.225 130.88ZM70.973 140.074L72.068 140.787L72.1573 141.854L72.288 142.837L72.4753 144.781L71.2731 143.999L71.1329 142.678L71.1062 141.932L70.973 140.074ZM74.8777 141.295C74.4448 141.959 73.9506 142.442 73.3951 142.745C72.8415 143.048 72.2684 143.182 71.6757 143.146C71.0863 143.11 70.5228 142.917 69.9852 142.566C69.4436 142.214 69.0377 141.774 68.7674 141.248C68.4972 140.721 68.3889 140.144 68.4426 139.515C68.4962 138.886 68.7388 138.24 69.1704 137.577C69.6032 136.913 70.0964 136.429 70.65 136.125C71.2036 135.822 71.7751 135.689 72.3645 135.725C72.9552 135.759 73.5213 135.953 74.0629 136.306C74.6005 136.656 75.0044 137.094 75.2747 137.62C75.5482 138.146 75.6581 138.723 75.6045 139.352C75.5528 139.983 75.3105 140.63 74.8777 141.295ZM73.5714 140.444C73.8517 140.013 74.0237 139.608 74.0873 139.229C74.1528 138.85 74.1193 138.509 73.9867 138.205C73.8541 137.902 73.632 137.648 73.3206 137.445C73.0091 137.242 72.6876 137.142 72.356 137.143C72.0244 137.145 71.6979 137.252 71.3765 137.463C71.057 137.676 70.7571 137.998 70.4767 138.428C70.1963 138.859 70.0234 139.263 69.9578 139.641C69.8942 140.021 69.9288 140.363 70.0614 140.667C70.194 140.97 70.416 141.224 70.7275 141.427C71.0389 141.63 71.3604 141.73 71.692 141.729C72.0236 141.727 72.3491 141.62 72.6686 141.407C72.9901 141.195 73.291 140.874 73.5714 140.444ZM81.6051 150.016L85.5742 143.922L86.8627 144.761L85.1126 147.448L85.1929 147.5L89.1361 146.242L90.6804 147.247L86.6417 148.503L86.7381 153.359L85.1967 152.355L85.1592 148.762L84.0215 149.123L82.8935 150.855L81.6051 150.016ZM-39.6195 90.1499L-38.9276 89.0876L-33.9226 92.3474L-34.6145 93.4097L-36.4802 92.1945L-39.7575 97.2264L-41.0311 96.3969L-37.7538 91.365L-39.6195 90.1499ZM-29.31 104.031L-25.3408 97.9368L-21.2344 100.611L-21.9263 101.674L-24.7443 99.8382L-25.69 101.29L-23.0834 102.988L-23.7753 104.05L-26.3819 102.353L-27.3296 103.808L-24.4998 105.651L-25.1917 106.713L-29.31 104.031ZM-10.0125 107.92L-8.73894 108.75L-11.5065 112.999C-11.7623 113.392 -12.0728 113.675 -12.438 113.85C-12.8012 114.026 -13.1896 114.091 -13.6031 114.045C-14.0166 113.999 -14.4297 113.841 -14.8423 113.572C-15.2093 113.333 -15.5006 113.052 -15.7162 112.728C-15.9285 112.403 -16.0353 112.051 -16.0368 111.671C-16.0369 111.29 -15.9042 110.897 -15.6386 110.494L-14.3561 111.329C-14.4568 111.493 -14.5139 111.652 -14.5273 111.807C-14.5375 111.961 -14.5081 112.105 -14.439 112.237C-14.3667 112.369 -14.2551 112.484 -14.1044 112.583C-13.9457 112.686 -13.7898 112.739 -13.6368 112.743C-13.4804 112.746 -13.3302 112.7 -13.1861 112.604C-13.042 112.509 -12.9067 112.364 -12.7801 112.169L-10.0125 107.92ZM-3.88528 120.59L0.0838658 114.496L1.37232 115.335L-1.90494 120.367L0.707683 122.069L0.015795 123.131L-3.88528 120.59ZM8.62658 128.739L12.5957 122.645L13.8842 123.484L12.1341 126.171L12.2145 126.224L16.1576 124.965L17.7019 125.971L13.6632 127.227L13.7596 132.082L12.2182 131.078L12.1807 127.486L11.043 127.847L9.91504 129.578L8.62658 128.739ZM-48.5378 111.579C-48.4053 111.324 -48.386 111.071 -48.4799 110.82C-48.5739 110.57 -48.7756 110.344 -49.0851 110.142C-49.2953 110.005 -49.4923 109.919 -49.6758 109.885C-49.8581 109.848 -50.0215 109.856 -50.1661 109.909C-50.3087 109.963 -50.4226 110.055 -50.5079 110.186C-50.5829 110.293 -50.6221 110.403 -50.6255 110.516C-50.6269 110.631 -50.6023 110.747 -50.5518 110.865C-50.5 110.981 -50.4298 111.099 -50.3412 111.218C-50.2513 111.336 -50.1496 111.453 -50.036 111.57L-49.5738 112.057C-49.3467 112.29 -49.1544 112.528 -48.9968 112.772C-48.8392 113.016 -48.7263 113.263 -48.6579 113.514C-48.5896 113.765 -48.5747 114.018 -48.6134 114.272C-48.65 114.528 -48.75 114.783 -48.9134 115.039C-49.1583 115.41 -49.4642 115.672 -49.8309 115.823C-50.1944 115.973 -50.6018 116.008 -51.0531 115.929C-51.5011 115.849 -51.9731 115.648 -52.4691 115.325C-52.961 115.004 -53.3404 114.65 -53.6072 114.262C-53.8721 113.874 -54.0104 113.466 -54.0222 113.038C-54.0307 112.608 -53.8972 112.171 -53.6216 111.726L-52.3748 112.538C-52.494 112.752 -52.5466 112.961 -52.5326 113.165C-52.5153 113.368 -52.442 113.561 -52.3126 113.744C-52.18 113.927 -52.0026 114.09 -51.7804 114.235C-51.5622 114.377 -51.3521 114.469 -51.15 114.51C-50.946 114.552 -50.7626 114.546 -50.5997 114.491C-50.4367 114.436 -50.3075 114.336 -50.2119 114.189C-50.1227 114.052 -50.0884 113.91 -50.109 113.764C-50.1277 113.619 -50.193 113.464 -50.3051 113.297C-50.4152 113.132 -50.5639 112.951 -50.7512 112.752L-51.3063 112.154C-51.7387 111.694 -52.0171 111.234 -52.1415 110.775C-52.266 110.315 -52.1805 109.861 -51.8853 109.412C-51.6469 109.042 -51.3388 108.783 -50.9608 108.637C-50.5808 108.491 -50.1659 108.455 -49.716 108.528C-49.2661 108.6 -48.8189 108.781 -48.3746 109.071C-47.9223 109.365 -47.5779 109.7 -47.3414 110.074C-47.103 110.45 -46.9793 110.837 -46.9705 111.236C-46.9616 111.634 -47.0724 112.017 -47.3029 112.384L-48.5378 111.579ZM-43.047 115.156C-42.9144 114.9 -42.8952 114.647 -42.9891 114.396C-43.0831 114.146 -43.2848 113.92 -43.5942 113.718C-43.8045 113.581 -44.0014 113.496 -44.185 113.461C-44.3673 113.424 -44.5307 113.432 -44.6753 113.485C-44.8179 113.539 -44.9318 113.631 -45.017 113.762C-45.0921 113.869 -45.1313 113.979 -45.1347 114.092C-45.1361 114.207 -45.1115 114.324 -45.061 114.441C-45.0092 114.557 -44.939 114.675 -44.8504 114.795C-44.7605 114.913 -44.6587 115.03 -44.5452 115.146L-44.083 115.634C-43.8559 115.866 -43.6636 116.104 -43.506 116.348C-43.3484 116.592 -43.2354 116.84 -43.1671 117.09C-43.0987 117.341 -43.0839 117.594 -43.1225 117.848C-43.1592 118.104 -43.2592 118.36 -43.4226 118.615C-43.6675 118.986 -43.9733 119.248 -44.3401 119.399C-44.7036 119.549 -45.111 119.585 -45.5623 119.505C-46.0103 119.426 -46.4823 119.224 -46.9782 118.901C-47.4702 118.581 -47.8496 118.226 -48.1164 117.838C-48.3813 117.451 -48.5196 117.043 -48.5314 116.614C-48.5399 116.185 -48.4064 115.747 -48.1308 115.303L-46.884 116.115C-47.0032 116.328 -47.0558 116.537 -47.0418 116.741C-47.0245 116.944 -46.9512 117.137 -46.8218 117.321C-46.6892 117.503 -46.5118 117.667 -46.2896 117.811C-46.0714 117.953 -45.8613 118.045 -45.6592 118.086C-45.4552 118.129 -45.2717 118.122 -45.1088 118.068C-44.9459 118.013 -44.8167 117.912 -44.721 117.765C-44.6319 117.628 -44.5976 117.486 -44.6182 117.34C-44.6369 117.195 -44.7022 117.04 -44.8143 116.874C-44.9244 116.709 -45.0731 116.527 -45.2604 116.329L-45.8155 115.73C-46.2479 115.27 -46.5263 114.811 -46.6507 114.351C-46.7751 113.891 -46.6897 113.437 -46.3944 112.988C-46.1561 112.618 -45.848 112.359 -45.47 112.213C-45.09 112.068 -44.6751 112.031 -44.2252 112.104C-43.7752 112.177 -43.3281 112.358 -42.8837 112.647C-42.4314 112.942 -42.0871 113.276 -41.8506 113.651C-41.6122 114.026 -41.4885 114.413 -41.4796 114.812C-41.4708 115.21 -41.5816 115.593 -41.8121 115.96L-43.047 115.156ZM-36.1989 117.12L-34.7557 118.06L-35.0755 121.589L-35.0159 121.628L-31.9169 119.908L-30.4738 120.848L-35.2626 123.34L-36.6657 125.495L-37.9452 124.661L-36.5421 122.507L-36.1989 117.12ZM-19.5725 127.949L-18.2989 128.778L-21.0664 133.027C-21.3223 133.42 -21.6328 133.704 -21.998 133.878C-22.3612 134.054 -22.7495 134.119 -23.1631 134.073C-23.5766 134.027 -23.9896 133.869 -24.4023 133.601C-24.7693 133.362 -25.0606 133.08 -25.2761 132.756C-25.4884 132.431 -25.5953 132.079 -25.5967 131.7C-25.5969 131.318 -25.4641 130.926 -25.1986 130.522L-23.9161 131.358C-24.0168 131.521 -24.0738 131.68 -24.0873 131.835C-24.0974 131.99 -24.068 132.133 -23.9989 132.266C-23.9266 132.398 -23.8151 132.513 -23.6643 132.611C-23.5056 132.714 -23.3497 132.768 -23.1967 132.771C-23.0404 132.774 -22.8902 132.728 -22.7461 132.633C-22.602 132.537 -22.4666 132.392 -22.34 132.198L-19.5725 127.949ZM-13.4452 140.618L-9.47608 134.524L-8.18762 135.364L-9.93769 138.051L-9.85735 138.103L-5.91423 136.844L-4.36986 137.85L-8.40856 139.106L-8.31223 143.962L-9.85362 142.958L-9.89111 139.365L-11.0288 139.726L-12.1568 141.458L-13.4452 140.618Z" fill="white"/>
</g>
<defs>
<clipPath id="clip0_1_4">
<rect width="375" height="812" fill="white" transform="translate(-27 -119)"/>
</clipPath>
</defs>
</svg>
