<svg width="321" height="127" viewBox="0 0 321 127" fill="none" xmlns="http://www.w3.org/2000/svg">
<rect x="0.5" y="0.5" width="320" height="126" fill="white" stroke="black"/>
<mask id="mask0_7_41" style="mask-type:alpha" maskUnits="userSpaceOnUse" x="0" y="1" width="320" height="125">
<rect x="0.5" y="1.5" width="319" height="124" fill="white" stroke="black"/>
</mask>
<g mask="url(#mask0_7_41)">
<circle cx="36" cy="100" r="15" fill="#304859"/>
<circle cx="219" cy="103" r="15" fill="#304859"/>
<circle cx="234" cy="34" r="15" fill="#304859"/>
<circle cx="161" cy="69" r="15" fill="#304859"/>
<path d="M11.517 16.5455H16.0682L20.875 28.2727H21.0795L25.8864 16.5455H30.4375V34H26.858V22.6392H26.7131L22.196 33.9148H19.7585L15.2415 22.5966H15.0966V34H11.517V16.5455ZM39.3757 34.2557C38.0291 34.2557 36.87 33.983 35.8984 33.4375C34.9325 32.8864 34.1882 32.108 33.6655 31.1023C33.1428 30.0909 32.8814 28.8949 32.8814 27.5142C32.8814 26.1676 33.1428 24.9858 33.6655 23.9688C34.1882 22.9517 34.924 22.1591 35.8729 21.5909C36.8274 21.0227 37.9467 20.7386 39.2308 20.7386C40.0945 20.7386 40.8984 20.8778 41.6428 21.1562C42.3928 21.429 43.0462 21.8409 43.603 22.392C44.1655 22.9432 44.603 23.6364 44.9155 24.4716C45.228 25.3011 45.3842 26.2727 45.3842 27.3864V28.3835H34.3303V26.1335H41.9666C41.9666 25.6108 41.853 25.1477 41.6257 24.7443C41.3984 24.3409 41.0831 24.0256 40.6797 23.7983C40.282 23.5653 39.8189 23.4489 39.2905 23.4489C38.7393 23.4489 38.2507 23.5767 37.8246 23.8324C37.4041 24.0824 37.0746 24.4205 36.8359 24.8466C36.5973 25.267 36.4751 25.7358 36.4695 26.2528V28.392C36.4695 29.0398 36.5888 29.5994 36.8274 30.071C37.0717 30.5426 37.4155 30.9062 37.8587 31.1619C38.3018 31.4176 38.8274 31.5455 39.4354 31.5455C39.8388 31.5455 40.2081 31.4886 40.5433 31.375C40.8786 31.2614 41.1655 31.0909 41.4041 30.8636C41.6428 30.6364 41.8246 30.358 41.9496 30.0284L45.3075 30.25C45.1371 31.0568 44.7876 31.7614 44.2592 32.3636C43.7365 32.9602 43.0604 33.4261 42.2308 33.7614C41.407 34.0909 40.4553 34.2557 39.3757 34.2557ZM47.7536 34V20.9091H51.2138V23.2188H51.3672C51.6399 22.4517 52.0945 21.8466 52.7308 21.4034C53.3672 20.9602 54.1286 20.7386 55.0149 20.7386C55.9126 20.7386 56.6768 20.9631 57.3075 21.4119C57.9382 21.8551 58.3587 22.4574 58.5689 23.2188H58.7053C58.9723 22.4688 59.4553 21.8693 60.1541 21.4205C60.8587 20.9659 61.6911 20.7386 62.6513 20.7386C63.8729 20.7386 64.8643 21.1278 65.6257 21.9062C66.3928 22.679 66.7763 23.7756 66.7763 25.196V34H63.1541V25.9119C63.1541 25.1847 62.9609 24.6392 62.5746 24.2756C62.1882 23.9119 61.7053 23.7301 61.1257 23.7301C60.4666 23.7301 59.9524 23.9403 59.5831 24.3608C59.2138 24.7756 59.0291 25.3239 59.0291 26.0057V34H55.5092V25.8352C55.5092 25.1932 55.3246 24.6818 54.9553 24.3011C54.5916 23.9205 54.1115 23.7301 53.5149 23.7301C53.1115 23.7301 52.7479 23.8324 52.424 24.0369C52.1058 24.2358 51.853 24.517 51.6655 24.8807C51.478 25.2386 51.3842 25.6591 51.3842 26.142V34H47.7536ZM75.5589 34.2557C74.2351 34.2557 73.0902 33.9744 72.1243 33.4119C71.1641 32.8437 70.4226 32.054 69.8999 31.0426C69.3771 30.0256 69.1158 28.8466 69.1158 27.5057C69.1158 26.1534 69.3771 24.9716 69.8999 23.9602C70.4226 22.9432 71.1641 22.1534 72.1243 21.5909C73.0902 21.0227 74.2351 20.7386 75.5589 20.7386C76.8828 20.7386 78.0249 21.0227 78.9851 21.5909C79.951 22.1534 80.6953 22.9432 81.218 23.9602C81.7408 24.9716 82.0021 26.1534 82.0021 27.5057C82.0021 28.8466 81.7408 30.0256 81.218 31.0426C80.6953 32.054 79.951 32.8437 78.9851 33.4119C78.0249 33.9744 76.8828 34.2557 75.5589 34.2557ZM75.576 31.4432C76.1783 31.4432 76.6811 31.2727 77.0845 30.9318C77.4879 30.5852 77.7919 30.1136 77.9964 29.517C78.2067 28.9205 78.3118 28.2415 78.3118 27.4801C78.3118 26.7188 78.2067 26.0398 77.9964 25.4432C77.7919 24.8466 77.4879 24.375 77.0845 24.0284C76.6811 23.6818 76.1783 23.5085 75.576 23.5085C74.968 23.5085 74.4567 23.6818 74.0419 24.0284C73.6328 24.375 73.3232 24.8466 73.1129 25.4432C72.9084 26.0398 72.8061 26.7188 72.8061 27.4801C72.8061 28.2415 72.9084 28.9205 73.1129 29.517C73.3232 30.1136 73.6328 30.5852 74.0419 30.9318C74.4567 31.2727 74.968 31.4432 75.576 31.4432ZM84.3629 34V20.9091H87.8828V23.1932H88.0192C88.2578 22.3807 88.6584 21.767 89.2209 21.3523C89.7834 20.9318 90.4311 20.7216 91.1641 20.7216C91.3459 20.7216 91.5419 20.733 91.7521 20.7557C91.9624 20.7784 92.147 20.8097 92.3061 20.8494V24.071C92.1357 24.0199 91.8999 23.9744 91.5987 23.9347C91.2976 23.8949 91.022 23.875 90.772 23.875C90.2379 23.875 89.7607 23.9915 89.3402 24.2244C88.9254 24.4517 88.5959 24.7699 88.3516 25.179C88.1129 25.5881 87.9936 26.0597 87.9936 26.5938V34H84.3629ZM96.8232 38.9091C96.3629 38.9091 95.9311 38.8722 95.5277 38.7983C95.13 38.7301 94.8004 38.642 94.5391 38.5341L95.3572 35.8239C95.7834 35.9545 96.1669 36.0256 96.5078 36.0369C96.8544 36.0483 97.1527 35.9688 97.4027 35.7983C97.6584 35.6278 97.8658 35.3381 98.0249 34.929L98.2379 34.375L93.5419 20.9091H97.3601L100.07 30.5227H100.207L102.942 20.9091H106.786L101.698 35.4148C101.454 36.1193 101.121 36.733 100.701 37.2557C100.286 37.7841 99.7607 38.1903 99.1243 38.4744C98.4879 38.7642 97.7209 38.9091 96.8232 38.9091Z" fill="black"/>
<path d="M23.0909 51.1875C22.9716 50.7727 22.804 50.4062 22.5881 50.0881C22.3722 49.7642 22.108 49.4915 21.7955 49.2699C21.4886 49.0426 21.1364 48.8693 20.7386 48.75C20.3466 48.6307 19.9119 48.571 19.4347 48.571C18.5426 48.571 17.7585 48.7926 17.0824 49.2358C16.4119 49.679 15.8892 50.3239 15.5142 51.1705C15.1392 52.0114 14.9517 53.0398 14.9517 54.2557C14.9517 55.4716 15.1364 56.5057 15.5057 57.358C15.875 58.2102 16.3977 58.8608 17.0739 59.3097C17.75 59.7528 18.5483 59.9744 19.4688 59.9744C20.304 59.9744 21.017 59.8267 21.608 59.5312C22.2045 59.2301 22.6591 58.8068 22.9716 58.2614C23.2898 57.7159 23.4489 57.071 23.4489 56.3267L24.1989 56.4375H19.6989V53.6591H27.0028V55.858C27.0028 57.392 26.679 58.7102 26.0312 59.8125C25.3835 60.9091 24.4915 61.7557 23.3551 62.3523C22.2188 62.9432 20.9176 63.2386 19.4517 63.2386C17.8153 63.2386 16.3778 62.8778 15.1392 62.1562C13.9006 61.429 12.9347 60.3977 12.2415 59.0625C11.554 57.7216 11.2102 56.1307 11.2102 54.2898C11.2102 52.875 11.4148 51.6136 11.8239 50.5057C12.2386 49.392 12.8182 48.4489 13.5625 47.6761C14.3068 46.9034 15.1733 46.3153 16.1619 45.9119C17.1506 45.5085 18.2216 45.3068 19.375 45.3068C20.3636 45.3068 21.2841 45.4517 22.1364 45.7415C22.9886 46.0256 23.7443 46.429 24.4034 46.9517C25.0682 47.4744 25.6108 48.0966 26.0312 48.8182C26.4517 49.5341 26.7216 50.3239 26.8409 51.1875H23.0909ZM33.4396 63.2472C32.6044 63.2472 31.8601 63.1023 31.2067 62.8125C30.5533 62.517 30.0362 62.0824 29.6555 61.5085C29.2805 60.929 29.093 60.2074 29.093 59.3438C29.093 58.6165 29.2266 58.0057 29.4936 57.5114C29.7607 57.017 30.1243 56.6193 30.5845 56.3182C31.0447 56.017 31.5675 55.7898 32.1527 55.6364C32.7436 55.483 33.3629 55.375 34.0107 55.3125C34.772 55.233 35.3857 55.1591 35.8516 55.0909C36.3175 55.017 36.6555 54.9091 36.8658 54.767C37.076 54.625 37.1811 54.4148 37.1811 54.1364V54.0852C37.1811 53.5455 37.0107 53.1278 36.6697 52.8324C36.3345 52.5369 35.8572 52.3892 35.2379 52.3892C34.5845 52.3892 34.0646 52.5341 33.6783 52.8239C33.2919 53.108 33.0362 53.4659 32.9112 53.8977L29.5533 53.625C29.7237 52.8295 30.0589 52.142 30.5589 51.5625C31.0589 50.9773 31.7038 50.5284 32.4936 50.2159C33.2891 49.8977 34.2095 49.7386 35.255 49.7386C35.9822 49.7386 36.6783 49.8239 37.343 49.9943C38.0135 50.1648 38.6072 50.429 39.1243 50.7869C39.647 51.1449 40.0589 51.6051 40.3601 52.1676C40.6612 52.7244 40.8118 53.392 40.8118 54.1705V63H37.3686V61.1847H37.2663C37.0561 61.5938 36.7749 61.9545 36.4226 62.267C36.0703 62.5739 35.647 62.8153 35.1527 62.9915C34.6584 63.1619 34.0874 63.2472 33.4396 63.2472ZM34.4794 60.7415C35.0135 60.7415 35.4851 60.6364 35.8942 60.4261C36.3033 60.2102 36.6243 59.9205 36.8572 59.5568C37.0902 59.1932 37.2067 58.7812 37.2067 58.321V56.9318C37.093 57.0057 36.9368 57.0739 36.7379 57.1364C36.5447 57.1932 36.326 57.2472 36.0817 57.2983C35.8374 57.3437 35.593 57.3864 35.3487 57.4261C35.1044 57.4602 34.8828 57.4915 34.6839 57.5199C34.2578 57.5824 33.8857 57.6818 33.5675 57.8182C33.2493 57.9545 33.0021 58.1392 32.826 58.3722C32.6499 58.5994 32.5618 58.8835 32.5618 59.2244C32.5618 59.7188 32.7408 60.0966 33.0987 60.358C33.4624 60.6136 33.9226 60.7415 34.4794 60.7415ZM43.6286 63V49.9091H47.0888V52.2188H47.2422C47.5149 51.4517 47.9695 50.8466 48.6058 50.4034C49.2422 49.9602 50.0036 49.7386 50.8899 49.7386C51.7876 49.7386 52.5518 49.9631 53.1825 50.4119C53.8132 50.8551 54.2337 51.4574 54.4439 52.2188H54.5803C54.8473 51.4688 55.3303 50.8693 56.0291 50.4205C56.7337 49.9659 57.5661 49.7386 58.5263 49.7386C59.7479 49.7386 60.7393 50.1278 61.5007 50.9062C62.2678 51.679 62.6513 52.7756 62.6513 54.196V63H59.0291V54.9119C59.0291 54.1847 58.8359 53.6392 58.4496 53.2756C58.0632 52.9119 57.5803 52.7301 57.0007 52.7301C56.3416 52.7301 55.8274 52.9403 55.4581 53.3608C55.0888 53.7756 54.9041 54.3239 54.9041 55.0057V63H51.3842V54.8352C51.3842 54.1932 51.1996 53.6818 50.8303 53.3011C50.4666 52.9205 49.9865 52.7301 49.3899 52.7301C48.9865 52.7301 48.6229 52.8324 48.299 53.0369C47.9808 53.2358 47.728 53.517 47.5405 53.8807C47.353 54.2386 47.2592 54.6591 47.2592 55.142V63H43.6286ZM71.4851 63.2557C70.1385 63.2557 68.9794 62.983 68.0078 62.4375C67.0419 61.8864 66.2976 61.108 65.7749 60.1023C65.2521 59.0909 64.9908 57.8949 64.9908 56.5142C64.9908 55.1676 65.2521 53.9858 65.7749 52.9688C66.2976 51.9517 67.0334 51.1591 67.9822 50.5909C68.9368 50.0227 70.0561 49.7386 71.3402 49.7386C72.2038 49.7386 73.0078 49.8778 73.7521 50.1562C74.5021 50.429 75.1555 50.8409 75.7124 51.392C76.2749 51.9432 76.7124 52.6364 77.0249 53.4716C77.3374 54.3011 77.4936 55.2727 77.4936 56.3864V57.3835H66.4396V55.1335H74.076C74.076 54.6108 73.9624 54.1477 73.7351 53.7443C73.5078 53.3409 73.1925 53.0256 72.7891 52.7983C72.3913 52.5653 71.9283 52.4489 71.3999 52.4489C70.8487 52.4489 70.3601 52.5767 69.9339 52.8324C69.5135 53.0824 69.1839 53.4205 68.9453 53.8466C68.7067 54.267 68.5845 54.7358 68.5788 55.2528V57.392C68.5788 58.0398 68.6982 58.5994 68.9368 59.071C69.1811 59.5426 69.5249 59.9062 69.968 60.1619C70.4112 60.4176 70.9368 60.5455 71.5447 60.5455C71.9482 60.5455 72.3175 60.4886 72.6527 60.375C72.9879 60.2614 73.2749 60.0909 73.5135 59.8636C73.7521 59.6364 73.9339 59.358 74.0589 59.0284L77.4169 59.25C77.2464 60.0568 76.897 60.7614 76.3686 61.3636C75.8459 61.9602 75.1697 62.4261 74.3402 62.7614C73.5163 63.0909 72.5646 63.2557 71.4851 63.2557Z" fill="#FDA214"/>
<circle cx="147.372" cy="14.3716" r="15" transform="rotate(69.0505 147.372 14.3716)" fill="#FDA214"/>
<path d="M155.315 14.0151L141.731 19.2158L140.631 16.3438L151.489 12.1868L151.459 12.1072L148.318 9.74304L150.865 8.76792L154.281 11.3156L155.315 14.0151Z" fill="white"/>
<circle cx="275.158" cy="79.1578" r="15" transform="rotate(-19.5694 275.158 79.1578)" fill="#FDA214"/>
<path d="M274.993 71.2084L279.865 84.9137L276.967 85.9437L273.073 74.9889L272.992 75.0174L270.553 78.1006L269.64 75.5309L272.269 72.1766L274.993 71.2084Z" fill="white"/>
<circle cx="301.79" cy="23.7899" r="15" transform="rotate(-11.9951 301.79 23.7899)" fill="#D9D9D9"/>
<path d="M303.975 31.7076C302.993 31.9162 302.079 31.9216 301.233 31.7236C300.392 31.5248 299.68 31.1558 299.096 30.6167C298.512 30.0777 298.123 29.4002 297.931 28.5844L300.849 27.9644C300.998 28.5087 301.325 28.9064 301.828 29.1577C302.332 29.4089 302.88 29.4715 303.473 29.3455C303.945 29.2452 304.34 29.0524 304.657 28.7672C304.977 28.4764 305.2 28.1218 305.324 27.7034C305.452 27.2793 305.463 26.8218 305.359 26.3309C305.253 25.8307 305.053 25.4133 304.759 25.0788C304.47 24.7433 304.117 24.5084 303.702 24.3741C303.286 24.2398 302.839 24.221 302.361 24.3177C301.944 24.4062 301.557 24.578 301.2 24.833C300.847 25.0871 300.593 25.3854 300.439 25.7281L297.662 25.817L296.742 18.1708L305.44 16.3228L305.962 18.7821L299.745 20.1032L300.134 23.7453L300.217 23.7276C300.392 23.3225 300.708 22.9505 301.163 22.6117C301.619 22.2728 302.16 22.037 302.785 21.9042C303.642 21.7221 304.449 21.7612 305.206 22.0215C305.963 22.2817 306.611 22.7225 307.149 23.3438C307.687 23.9605 308.051 24.7256 308.24 25.639C308.448 26.5967 308.407 27.4961 308.116 28.3372C307.829 29.1727 307.33 29.8886 306.619 30.485C305.912 31.0757 305.031 31.4832 303.975 31.7076Z" fill="white"/>
<circle cx="308.039" cy="114.039" r="15" transform="rotate(-52.3485 308.039 114.039)" fill="#D9D9D9"/>
<path d="M308.269 122.355L306.352 120.876L302.487 110.224L303.762 108.571L306.416 110.619L305.661 111.597L308.119 118.329L308.209 118.398L313.481 111.566L315.432 113.071L308.269 122.355ZM314.558 118.39L311.949 116.377L311.135 115.676L303.077 109.459L304.838 107.176L316.354 116.062L314.558 118.39Z" fill="white"/>
<circle cx="95" cy="88" r="15" transform="rotate(-128.652 95 88)" fill="#D9D9D9"/>
<path d="M101.056 82.4454C101.719 83.2737 102.166 84.1252 102.399 85C102.625 85.8741 102.636 86.699 102.432 87.4746C102.221 88.2496 101.789 88.9072 101.136 89.4477L99.202 87.0294C99.4675 86.7928 99.6391 86.507 99.7168 86.1721C99.7878 85.8364 99.7682 85.4821 99.6581 85.1094C99.548 84.7367 99.3525 84.3747 99.0715 84.0235C98.7787 83.6574 98.4553 83.3856 98.1011 83.2081C97.7469 83.0306 97.3916 82.954 97.0352 82.9783C96.6788 83.0027 96.3508 83.1346 96.0513 83.3742C95.7481 83.6167 95.548 83.9161 95.4511 84.2725C95.3475 84.6282 95.3549 85.0164 95.4731 85.4372C95.5884 85.8542 95.8176 86.2772 96.1606 86.7062L97.0079 87.7656L95.2441 89.1762L94.3968 88.1168C94.107 87.7544 93.7883 87.4849 93.4408 87.3081C93.0903 87.1276 92.7421 87.0484 92.396 87.0706C92.0462 87.0957 91.7216 87.228 91.4221 87.4675C91.1373 87.6952 90.9425 87.9633 90.8374 88.2716C90.7257 88.5792 90.7064 88.9038 90.7796 89.2455C90.8498 89.5834 91.0135 89.9132 91.2708 90.2349C91.5311 90.5603 91.8283 90.8107 92.1625 90.986C92.493 91.1642 92.8306 91.2489 93.1752 91.2401C93.5197 91.2313 93.8407 91.1171 94.138 90.8975L95.9789 93.1993C95.3155 93.7117 94.5894 93.9863 93.8003 94.0232C93.0113 94.06 92.2309 93.8839 91.4589 93.4949C90.6803 93.1051 89.9805 92.5219 89.3595 91.7454C88.7325 90.9615 88.3263 90.1617 88.1408 89.346C87.9553 88.5304 87.9747 87.7661 88.1988 87.0533C88.4163 86.3398 88.8261 85.7453 89.4281 85.2699C90.0611 84.7576 90.7499 84.531 91.4946 84.5903C92.2362 84.6459 92.9187 84.9458 93.542 85.4901L93.6307 85.4192C93.0696 84.4977 92.8512 83.6296 92.9756 82.8147C93.0933 81.9991 93.5067 81.3107 94.216 80.7496C94.8601 80.2283 95.5844 79.9552 96.389 79.9302C97.1905 79.9015 97.9987 80.1009 98.8136 80.5284C99.6284 80.9559 100.376 81.5949 101.056 82.4454Z" fill="white"/>
<circle cx="149.392" cy="108.392" r="15" transform="rotate(-21.0855 149.392 108.392)" fill="#FDA214"/>
<path d="M147.412 116.658L146.615 114.59L149.721 108.255C149.979 107.699 150.185 107.208 150.341 106.782C150.501 106.355 150.595 105.961 150.624 105.6C150.65 105.235 150.594 104.873 150.456 104.515C150.303 104.118 150.081 103.81 149.789 103.593C149.495 103.371 149.162 103.243 148.788 103.21C148.413 103.172 148.027 103.229 147.629 103.383C147.214 103.543 146.884 103.766 146.64 104.053C146.395 104.34 146.25 104.673 146.203 105.052C146.156 105.43 146.216 105.836 146.383 106.269L143.659 107.319C143.317 106.431 143.22 105.582 143.37 104.774C143.52 103.965 143.888 103.242 144.475 102.604C145.062 101.967 145.828 101.466 146.773 101.102C147.745 100.727 148.657 100.573 149.51 100.64C150.366 100.701 151.112 100.957 151.747 101.407C152.382 101.857 152.851 102.473 153.152 103.255C153.35 103.767 153.443 104.313 153.433 104.89C153.426 105.466 153.284 106.158 153.007 106.965C152.728 107.768 152.286 108.773 151.681 109.98L150.448 112.686L150.484 112.779L156.183 110.581L157.087 112.927L147.412 116.658Z" fill="white"/>
</g>
</svg>
